<svg width="84" height="94" viewBox="0 0 84 94" fill="none" xmlns="http://www.w3.org/2000/svg">
<path d="M80.8579 52.1749L65.2547 11.3891C63.8118 7.6176 61.0019 4.52761 57.384 2.73403C55.7962 1.94684 54.089 1.42776 52.3317 1.19781L46.0439 0.375L42.6046 0.375L36.1847 0.375L31.5408 0.680806C29.9014 0.788759 28.2746 1.03961 26.6788 1.43051C24.4644 1.97296 22.3238 2.78166 20.3039 3.83893L17.6213 5.24306C15.4919 6.35768 13.5716 7.83279 11.9457 9.60295C9.06754 12.7364 7.21904 16.6768 6.64925 20.8932L3.856 41.563L0.60379 65.6291C0.327324 67.6749 0.304787 69.7471 0.536682 71.7984L0.555588 71.9657C0.76799 73.8446 1.20492 75.6912 1.857 77.4661L2.08247 78.0797C2.65092 79.6269 3.42118 81.0923 4.37328 82.4379C5.39891 83.8873 6.62549 85.1835 8.01617 86.2875L8.34917 86.5519C9.47799 87.448 10.6933 88.2295 11.9771 88.8846L12.7438 89.2759C15.5148 90.6901 18.4869 91.6693 21.5558 92.1792L26.7842 93.0479L32.2197 93.4747C34.5542 93.658 36.899 93.6702 39.2354 93.5112L42.4631 93.2916C44.8469 93.1294 47.2153 92.7894 49.5486 92.2745L58.4145 90.3179C61.4686 89.6439 64.4353 88.622 67.2566 87.2722L68.2216 86.8105C69.6365 86.1335 70.9924 85.3394 72.2751 84.4366L73.1557 83.8166C75.6901 82.0326 77.8359 79.7527 79.4631 77.1149C80.4141 75.5732 81.1788 73.9241 81.7412 72.2021L81.9305 71.6226C82.7632 69.0726 83.1875 66.4069 83.1875 63.7244C83.1875 61.9046 82.9923 60.0901 82.6051 58.312L82.3797 57.2767C82.0017 55.5402 81.4929 53.8347 80.8579 52.1749Z" fill="#007616"/>
</svg>
