<svg width="20" height="18" viewBox="0 0 20 18" fill="none" xmlns="http://www.w3.org/2000/svg">
<path d="M10.9855 1.44907L3.1232 4.45693C2.39616 4.73507 1.8005 5.27674 1.45475 5.97416C1.30301 6.28025 1.20294 6.60934 1.15861 6.9481L1 8.16022V8.8232L1 10.0608L1.05895 10.956C1.07976 11.272 1.12812 11.5856 1.20347 11.8932C1.30804 12.3201 1.46393 12.7328 1.66775 13.1221L1.93842 13.6393C2.15329 14.0498 2.43765 14.4199 2.77888 14.7334C3.38293 15.2882 4.14252 15.6445 4.95531 15.7544L8.93985 16.2928L13.5791 16.9198C13.9735 16.973 14.3729 16.9774 14.7684 16.9327L14.8006 16.929C15.1628 16.8881 15.5188 16.8039 15.8609 16.6782L15.9792 16.6347C16.2775 16.5251 16.56 16.3766 16.8194 16.1931C17.0988 15.9954 17.3486 15.7589 17.5615 15.4909L17.6124 15.4267C17.7852 15.2091 17.9358 14.9748 18.0621 14.7273L18.1375 14.5795C18.4101 14.0453 18.5989 13.4724 18.6972 12.8808L18.8647 11.8729L18.9228 11.1329C18.9742 10.4779 18.9776 9.82015 18.933 9.16474C18.8875 8.49599 18.7921 7.83158 18.6477 7.17704L18.3384 5.77552C18.2085 5.18678 18.0115 4.61488 17.7513 4.07102L17.6623 3.885C17.5318 3.61223 17.3787 3.35086 17.2046 3.1036L17.0851 2.93383C16.7412 2.44528 16.3017 2.03163 15.7932 1.71796C15.496 1.53463 15.1781 1.38721 14.8462 1.27881L14.7345 1.24232C14.2429 1.08178 13.729 1 13.2119 1C12.8611 1 12.5113 1.03764 12.1686 1.11226L11.969 1.15572C11.6343 1.2286 11.3055 1.32666 10.9855 1.44907Z" stroke="#007616"/>
</svg>
