<svg width="94" height="83" viewBox="0 0 94 83" fill="none" xmlns="http://www.w3.org/2000/svg">
<path d="M51.7999 80.6704L11.0141 65.0672C7.2426 63.6243 4.15261 60.8144 2.35903 57.1965C1.57184 55.6087 1.05276 53.9015 0.822808 52.1442L0 45.8564L0 42.4171L0 35.9972L0.305806 31.3533C0.413759 29.7139 0.664613 28.0871 1.05551 26.4913C1.59796 24.2769 2.40666 22.1363 3.46393 20.1164L4.86806 17.4338C5.98268 15.3044 7.45779 13.3841 9.22795 11.7582C12.3614 8.88004 16.3018 7.03154 20.5182 6.46175L41.188 3.6685L65.2541 0.41629C67.2999 0.139824 69.3721 0.117287 71.4234 0.349182L71.5907 0.368088C73.4696 0.58049 75.3162 1.01742 77.0911 1.6695L77.7047 1.89497C79.2519 2.46342 80.7173 3.23368 82.0629 4.18578C83.5123 5.21141 84.8085 6.43799 85.9125 7.82867L86.1769 8.16167C87.073 9.29049 87.8545 10.5058 88.5096 11.7896L88.9009 12.5563C90.3151 15.3273 91.2943 18.2994 91.8042 21.3683L92.6729 26.5967L93.0997 32.0322C93.283 34.3667 93.2952 36.7115 93.1362 39.0479L92.9166 42.2756C92.7544 44.6594 92.4144 47.0278 91.8995 49.3611L89.9429 58.227C89.2689 61.2811 88.247 64.2478 86.8972 67.0691L86.4355 68.0341C85.7585 69.449 84.9644 70.8049 84.0616 72.0876L83.4416 72.9682C81.6576 75.5026 79.3777 77.6484 76.7399 79.2756C75.1982 80.2266 73.5491 80.9913 71.8271 81.5537L71.2476 81.743C68.6976 82.5757 66.0319 83 63.3494 83C61.5296 83 59.7151 82.8048 57.937 82.4176L56.9017 82.1922C55.1652 81.8142 53.4597 81.3054 51.7999 80.6704Z" fill="#FFD330"/>
</svg>
