<svg width="84" height="94" viewBox="0 0 84 94" fill="none" xmlns="http://www.w3.org/2000/svg">
<path d="M3.14206 51.7999L18.7453 11.0141C20.1882 7.2426 22.9981 4.15261 26.616 2.35903C28.2038 1.57184 29.911 1.05276 31.6683 0.822808L37.9561 0L41.3954 0L47.8153 0L52.4592 0.305806C54.0986 0.413759 55.7254 0.664613 57.3212 1.05551C59.5356 1.59796 61.6762 2.40666 63.6961 3.46393L66.3787 4.86806C68.5081 5.98268 70.4284 7.45779 72.0543 9.22795C74.9325 12.3614 76.781 16.3018 77.3507 20.5182L80.144 41.188L83.3962 65.2541C83.6727 67.2999 83.6952 69.3721 83.4633 71.4234L83.4444 71.5907C83.232 73.4696 82.7951 75.3162 82.143 77.0911L81.9175 77.7047C81.3491 79.2519 80.5788 80.7173 79.6267 82.0629C78.6011 83.5123 77.3745 84.8085 75.9838 85.9125L75.6508 86.1769C74.522 87.073 73.3067 87.8545 72.0229 88.5096L71.2562 88.9009C68.4852 90.3151 65.5131 91.2943 62.4442 91.8042L57.2158 92.6729L51.7803 93.0997C49.4458 93.283 47.101 93.2952 44.7646 93.1362L41.5369 92.9166C39.1531 92.7544 36.7847 92.4144 34.4514 91.8995L25.5855 89.9429C22.5314 89.2689 19.5647 88.247 16.7434 86.8972L15.7784 86.4355C14.3635 85.7585 13.0076 84.9644 11.7249 84.0616L10.8443 83.4416C8.30989 81.6576 6.1641 79.3777 4.53691 76.7399C3.58588 75.1982 2.82116 73.5491 2.25881 71.8271L2.06953 71.2476C1.23675 68.6976 0.8125 66.0319 0.8125 63.3494C0.8125 61.5296 1.00774 59.7151 1.39487 57.937L1.62027 56.9017C1.99834 55.1652 2.50706 53.4597 3.14206 51.7999Z" fill="#876E19"/>
</svg>
