<svg width="83" height="94" viewBox="0 0 83 94" fill="none" xmlns="http://www.w3.org/2000/svg">
<path d="M80.6704 41.5751L65.0672 82.3609C63.6243 86.1324 60.8144 89.2224 57.1965 91.016C55.6087 91.8032 53.9015 92.3222 52.1442 92.5522L45.8564 93.375H42.4171H35.9972L31.3533 93.0692C29.7139 92.9612 28.0871 92.7104 26.4913 92.3195C24.2769 91.777 22.1363 90.9683 20.1164 89.9111L17.4338 88.5069C15.3044 87.3923 13.3841 85.9172 11.7582 84.147C8.88004 81.0136 7.03154 77.0732 6.46175 72.8568L3.6685 52.187L0.41629 28.1209C0.139824 26.0751 0.117287 24.0029 0.349182 21.9516L0.368088 21.7843C0.58049 19.9054 1.01742 18.0588 1.6695 16.2839L1.89497 15.6703C2.46342 14.1231 3.23368 12.6577 4.18578 11.3121C5.21141 9.86266 6.43799 8.56646 7.82867 7.46246L8.16167 7.1981C9.29049 6.30197 10.5058 5.52054 11.7896 4.86539L12.5563 4.47406C15.3273 3.05993 18.2994 2.08071 21.3683 1.57079L26.5967 0.702065L32.0322 0.275307C34.3667 0.0920181 36.7115 0.0798035 39.0479 0.238785L42.2756 0.458412C44.6594 0.620621 47.0278 0.960602 49.3611 1.47551L58.227 3.43211C61.2811 4.1061 64.2478 5.12802 67.0691 6.47784L68.0341 6.93954C69.449 7.6165 70.8049 8.41058 72.0876 9.31345L72.9682 9.93337C75.5026 11.7174 77.6484 13.9973 79.2756 16.6351C80.2266 18.1768 80.9913 19.8259 81.5537 21.5479L81.743 22.1274C82.5757 24.6774 83 27.3431 83 30.0256C83 31.8454 82.8048 33.6599 82.4176 35.438L82.1922 36.4733C81.8142 38.2098 81.3054 39.9153 80.6704 41.5751Z" fill="#FFD330"/>
</svg>
