<svg width="72" height="54" viewBox="0 0 72 54" fill="none" xmlns="http://www.w3.org/2000/svg">
<g filter="url(#filter0_i_134_204)">
<path d="M28.4491 44.0145L31.4569 51.8768C31.7351 52.6038 32.2767 53.1995 32.9742 53.5452C33.2803 53.697 33.6093 53.7971 33.9481 53.8414L35.1602 54H35.8232H37.0608L37.956 53.941C38.272 53.9202 38.5856 53.8719 38.8932 53.7965C39.3201 53.692 39.7328 53.5361 40.1221 53.3323L40.6393 53.0616C41.0498 52.8467 41.4199 52.5624 41.7334 52.2211C42.2882 51.6171 42.6445 50.8575 42.7544 50.0447L43.2928 46.0602L43.9198 41.4209C43.973 41.0265 43.9774 40.6271 43.9327 40.2316L43.929 40.1994C43.8881 39.8372 43.8039 39.4812 43.6782 39.1391L43.6347 39.0208C43.5251 38.7225 43.3766 38.44 43.1931 38.1806C42.9954 37.9012 42.7589 37.6514 42.4909 37.4385L42.4267 37.3876C42.2091 37.2148 41.9748 37.0642 41.7273 36.9379L41.5795 36.8625C41.0453 36.5899 40.4724 36.4011 39.8808 36.3028L38.8729 36.1353L38.1329 36.0772C37.4779 36.0258 36.8201 36.0224 36.1647 36.067C35.496 36.1125 34.8316 36.2079 34.177 36.3523L32.7755 36.6616C32.1868 36.7915 31.6149 36.9885 31.071 37.2487L30.885 37.3377C30.6122 37.4682 30.3509 37.6213 30.1036 37.7954L29.9338 37.9149C29.4453 38.2588 29.0316 38.6983 28.718 39.2068C28.5346 39.504 28.3872 39.8219 28.2788 40.1538L28.2423 40.2655C28.0818 40.7571 28 41.271 28 41.7881C28 42.1389 28.0376 42.4887 28.1123 42.8314L28.1557 43.031C28.2286 43.3657 28.3267 43.6945 28.4491 44.0145Z" fill="#525252"/>
<path d="M71.5509 31.0145L68.5431 38.8768C68.2649 39.6038 67.7233 40.1995 67.0258 40.5452C66.7197 40.697 66.3907 40.7971 66.0519 40.8414L64.8398 41H64.1768H62.9392L62.044 40.941C61.728 40.9202 61.4144 40.8719 61.1068 40.7965C60.6799 40.692 60.2672 40.5361 59.8779 40.3323L59.3607 40.0616C58.9502 39.8467 58.5801 39.5624 58.2666 39.2211C57.7118 38.6171 57.3555 37.8575 57.2456 37.0447L56.7072 33.0602L56.0802 28.4209C56.027 28.0265 56.0226 27.6271 56.0673 27.2316L56.071 27.1994C56.1119 26.8372 56.1961 26.4812 56.3218 26.1391L56.3653 26.0208C56.4749 25.7225 56.6234 25.44 56.8069 25.1806C57.0046 24.9012 57.2411 24.6514 57.5091 24.4385L57.5733 24.3876C57.7909 24.2148 58.0252 24.0642 58.2727 23.9379L58.4205 23.8625C58.9547 23.5899 59.5276 23.4011 60.1192 23.3028L61.1271 23.1353L61.8671 23.0772C62.5221 23.0258 63.1799 23.0224 63.8353 23.067C64.504 23.1125 65.1684 23.2079 65.823 23.3523L67.2245 23.6616C67.8132 23.7915 68.3851 23.9885 68.929 24.2487L69.115 24.3377C69.3878 24.4682 69.6491 24.6213 69.8964 24.7954L70.0662 24.9149C70.5547 25.2588 70.9684 25.6983 71.282 26.2068C71.4654 26.504 71.6128 26.8219 71.7212 27.1538L71.7577 27.2655C71.9182 27.7571 72 28.271 72 28.7881C72 29.1389 71.9624 29.4887 71.8877 29.8314L71.8443 30.031C71.7714 30.3657 71.6733 30.6945 71.5509 31.0145Z" fill="#F3F3F3"/>
<path d="M20.4491 27.9855L23.4569 20.1232C23.7351 19.3962 24.2767 18.8005 24.9742 18.4548C25.2803 18.303 25.6093 18.2029 25.9481 18.1586L27.1602 18H27.8232H29.0608L29.956 18.059C30.272 18.0798 30.5856 18.1281 30.8932 18.2035C31.3201 18.308 31.7328 18.4639 32.1221 18.6677L32.6393 18.9384C33.0498 19.1533 33.4199 19.4376 33.7334 19.7789C34.2882 20.3829 34.6445 21.1425 34.7544 21.9553L35.2928 25.9398L35.9198 30.5791C35.973 30.9735 35.9774 31.3729 35.9327 31.7684L35.929 31.8006C35.8881 32.1628 35.8039 32.5188 35.6782 32.8609L35.6347 32.9792C35.5251 33.2775 35.3766 33.56 35.1931 33.8193C34.9954 34.0988 34.7589 34.3486 34.4909 34.5615L34.4267 34.6124C34.2091 34.7852 33.9748 34.9358 33.7273 35.0621L33.5795 35.1375C33.0453 35.4101 32.4724 35.5989 31.8808 35.6972L30.8729 35.8647L30.1329 35.9228C29.4779 35.9742 28.8201 35.9776 28.1647 35.933C27.496 35.8875 26.8316 35.7921 26.177 35.6477L24.7755 35.3384C24.1868 35.2085 23.6149 35.0115 23.071 34.7513L22.885 34.6623C22.6122 34.5318 22.3509 34.3787 22.1036 34.2046L21.9338 34.0851C21.4453 33.7412 21.0316 33.3017 20.718 32.7932C20.5346 32.496 20.3872 32.1781 20.2788 31.8462L20.2423 31.7345C20.0818 31.2429 20 30.729 20 30.2119C20 29.8611 20.0376 29.5113 20.1123 29.1686L20.1557 28.969C20.2286 28.6343 20.3267 28.3055 20.4491 27.9855Z" fill="#BABABA"/>
<path d="M29.4491 9.98552L32.4569 2.1232C32.7351 1.39616 33.2767 0.800504 33.9742 0.454753C34.2803 0.303006 34.6093 0.202942 34.9481 0.158614L36.1602 0L36.8232 0L38.0608 0L38.956 0.0589506C39.272 0.0797609 39.5856 0.128118 39.8932 0.203472C40.3201 0.30804 40.7328 0.463934 41.1221 0.667745L41.6393 0.938421C42.0498 1.15329 42.4199 1.43765 42.7334 1.77888C43.2882 2.38293 43.6445 3.14252 43.7544 3.95531L44.2928 7.93985L44.9198 12.5791C44.973 12.9735 44.9774 13.3729 44.9327 13.7684L44.929 13.8006C44.8881 14.1628 44.8039 14.5188 44.6782 14.8609L44.6347 14.9792C44.5251 15.2775 44.3766 15.56 44.1931 15.8193C43.9954 16.0988 43.7589 16.3486 43.4909 16.5615L43.4267 16.6124C43.2091 16.7852 42.9748 16.9358 42.7273 17.0621L42.5795 17.1375C42.0453 17.4101 41.4724 17.5989 40.8808 17.6972L39.8729 17.8647L39.1329 17.9228C38.4779 17.9742 37.8201 17.9776 37.1647 17.933C36.496 17.8875 35.8316 17.7921 35.177 17.6477L33.7755 17.3384C33.1868 17.2085 32.6149 17.0115 32.071 16.7513L31.885 16.6623C31.6122 16.5318 31.3509 16.3787 31.1036 16.2046L30.9338 16.0851C30.4453 15.7412 30.0316 15.3017 29.718 14.7932C29.5346 14.496 29.3872 14.1781 29.2788 13.8462L29.2423 13.7345C29.0818 13.2429 29 12.729 29 12.2119C29 11.8611 29.0376 11.5113 29.1123 11.1686L29.1557 10.969C29.2286 10.6343 29.3267 10.3055 29.4491 9.98552Z" fill="#BABABA"/>
<path d="M37.4491 27.9855L40.4569 20.1232C40.7351 19.3962 41.2767 18.8005 41.9742 18.4548C42.2803 18.303 42.6093 18.2029 42.9481 18.1586L44.1602 18H44.8232H46.0608L46.956 18.059C47.272 18.0798 47.5856 18.1281 47.8932 18.2035C48.3201 18.308 48.7328 18.4639 49.1221 18.6677L49.6393 18.9384C50.0498 19.1533 50.4199 19.4376 50.7334 19.7789C51.2882 20.3829 51.6445 21.1425 51.7544 21.9553L52.2928 25.9398L52.9198 30.5791C52.973 30.9735 52.9774 31.3729 52.9327 31.7684L52.929 31.8006C52.8881 32.1628 52.8039 32.5188 52.6782 32.8609L52.6347 32.9792C52.5251 33.2775 52.3766 33.56 52.1931 33.8193C51.9954 34.0988 51.7589 34.3486 51.4909 34.5615L51.4267 34.6124C51.2091 34.7852 50.9748 34.9358 50.7273 35.0621L50.5795 35.1375C50.0453 35.4101 49.4724 35.5989 48.8808 35.6972L47.8729 35.8647L47.1329 35.9228C46.4779 35.9742 45.8201 35.9776 45.1647 35.933C44.496 35.8875 43.8316 35.7921 43.177 35.6477L41.7755 35.3384C41.1868 35.2085 40.6149 35.0115 40.071 34.7513L39.885 34.6623C39.6122 34.5318 39.3509 34.3787 39.1036 34.2046L38.9338 34.0851C38.4453 33.7412 38.0316 33.3017 37.718 32.7932C37.5346 32.496 37.3872 32.1781 37.2788 31.8462L37.2423 31.7345C37.0818 31.2429 37 30.729 37 30.2119C37 29.8611 37.0376 29.5113 37.1123 29.1686L37.1557 28.969C37.2286 28.6343 37.3267 28.3055 37.4491 27.9855Z" fill="#BABABA"/>
<path d="M12.4491 45.9855L15.4569 38.1232C15.7351 37.3962 16.2767 36.8005 16.9742 36.4548C17.2803 36.303 17.6093 36.2029 17.9481 36.1586L19.1602 36H19.8232H21.0608L21.956 36.059C22.272 36.0798 22.5856 36.1281 22.8932 36.2035C23.3201 36.308 23.7328 36.4639 24.1221 36.6677L24.6393 36.9384C25.0498 37.1533 25.4199 37.4376 25.7334 37.7789C26.2882 38.3829 26.6445 39.1425 26.7544 39.9553L27.2928 43.9398L27.9198 48.5791C27.973 48.9735 27.9774 49.3729 27.9327 49.7684L27.929 49.8006C27.8881 50.1628 27.8039 50.5188 27.6782 50.8609L27.6347 50.9792C27.5251 51.2775 27.3766 51.56 27.1931 51.8194C26.9954 52.0988 26.7589 52.3486 26.4909 52.5615L26.4267 52.6124C26.2091 52.7852 25.9748 52.9358 25.7273 53.0621L25.5795 53.1375C25.0453 53.4101 24.4724 53.5989 23.8808 53.6972L22.8729 53.8647L22.1329 53.9228C21.4779 53.9742 20.8201 53.9776 20.1647 53.933C19.496 53.8875 18.8316 53.7921 18.177 53.6477L16.7755 53.3384C16.1868 53.2085 15.6149 53.0115 15.071 52.7513L14.885 52.6623C14.6122 52.5318 14.3509 52.3787 14.1036 52.2046L13.9338 52.0851C13.4453 51.7412 13.0316 51.3017 12.718 50.7932C12.5346 50.496 12.3872 50.1781 12.2788 49.8462L12.2423 49.7345C12.0818 49.2429 12 48.729 12 48.2119C12 47.8611 12.0376 47.5113 12.1123 47.1686L12.1557 46.969C12.2286 46.6343 12.3267 46.3055 12.4491 45.9855Z" fill="#525252"/>
<path d="M0.449072 31.0145L3.45693 38.8768C3.73507 39.6038 4.27674 40.1995 4.97416 40.5452C5.28025 40.697 5.60934 40.7971 5.9481 40.8414L7.16022 41H7.8232H9.06077L9.956 40.941C10.272 40.9202 10.5856 40.8719 10.8932 40.7965C11.3201 40.692 11.7328 40.5361 12.1221 40.3323L12.6393 40.0616C13.0498 39.8467 13.4199 39.5624 13.7334 39.2211C14.2882 38.6171 14.6445 37.8575 14.7544 37.0447L15.2928 33.0602L15.9198 28.4209C15.973 28.0265 15.9774 27.6271 15.9327 27.2316L15.929 27.1994C15.8881 26.8372 15.8039 26.4812 15.6782 26.1391L15.6347 26.0208C15.5251 25.7225 15.3766 25.44 15.1931 25.1807C14.9954 24.9012 14.7589 24.6514 14.4909 24.4385L14.4267 24.3876C14.2091 24.2148 13.9748 24.0642 13.7273 23.9379L13.5795 23.8625C13.0453 23.5899 12.4724 23.4011 11.8808 23.3028L10.8729 23.1353L10.1329 23.0772C9.47795 23.0258 8.82015 23.0224 8.16473 23.067C7.49599 23.1125 6.83158 23.2079 6.17705 23.3523L4.77553 23.6616C4.18678 23.7915 3.61488 23.9885 3.07102 24.2487L2.88499 24.3377C2.61223 24.4682 2.35086 24.6213 2.1036 24.7954L1.93383 24.9149C1.44528 25.2588 1.03163 25.6983 0.717959 26.2068C0.534627 26.504 0.387212 26.8219 0.278807 27.1538L0.24232 27.2655C0.0817836 27.7571 0 28.271 0 28.7881C0 29.1389 0.0376368 29.4887 0.112264 29.8314L0.155715 30.031C0.228597 30.3657 0.326661 30.6945 0.449072 31.0145Z" fill="#F3F3F3"/>
<path d="M59.5509 45.9855L56.5431 38.1232C56.2649 37.3962 55.7233 36.8005 55.0258 36.4548C54.7197 36.303 54.3907 36.2029 54.0519 36.1586L52.8398 36H52.1768H50.9392L50.044 36.059C49.728 36.0798 49.4144 36.1281 49.1068 36.2035C48.6799 36.308 48.2672 36.4639 47.8779 36.6677L47.3607 36.9384C46.9502 37.1533 46.5801 37.4376 46.2666 37.7789C45.7118 38.3829 45.3555 39.1425 45.2456 39.9553L44.7072 43.9398L44.0802 48.5791C44.027 48.9735 44.0226 49.3729 44.0673 49.7684L44.071 49.8006C44.1119 50.1628 44.1961 50.5188 44.3218 50.8609L44.3653 50.9792C44.4749 51.2775 44.6234 51.56 44.8069 51.8194C45.0046 52.0988 45.2411 52.3486 45.5091 52.5615L45.5733 52.6124C45.7909 52.7852 46.0252 52.9358 46.2727 53.0621L46.4205 53.1375C46.9547 53.4101 47.5276 53.5989 48.1192 53.6972L49.1271 53.8647L49.8671 53.9228C50.5221 53.9742 51.1799 53.9776 51.8353 53.933C52.504 53.8875 53.1684 53.7921 53.823 53.6477L55.2245 53.3384C55.8132 53.2085 56.3851 53.0115 56.929 52.7513L57.115 52.6623C57.3878 52.5318 57.6491 52.3787 57.8964 52.2046L58.0662 52.0851C58.5547 51.7412 58.9684 51.3017 59.282 50.7932C59.4654 50.496 59.6128 50.1781 59.7212 49.8462L59.7577 49.7345C59.9182 49.2429 60 48.729 60 48.2119C60 47.8611 59.9624 47.5113 59.8877 47.1686L59.8443 46.969C59.7714 46.6343 59.6733 46.3055 59.5509 45.9855Z" fill="#525252"/>
</g>
<defs>
<filter id="filter0_i_134_204" x="0" y="0" width="72" height="58" filterUnits="userSpaceOnUse" color-interpolation-filters="sRGB">
<feFlood flood-opacity="0" result="BackgroundImageFix"/>
<feBlend mode="normal" in="SourceGraphic" in2="BackgroundImageFix" result="shape"/>
<feColorMatrix in="SourceAlpha" type="matrix" values="0 0 0 0 0 0 0 0 0 0 0 0 0 0 0 0 0 0 127 0" result="hardAlpha"/>
<feOffset dy="4"/>
<feGaussianBlur stdDeviation="2"/>
<feComposite in2="hardAlpha" operator="arithmetic" k2="-1" k3="1"/>
<feColorMatrix type="matrix" values="0 0 0 0 0 0 0 0 0 0 0 0 0 0 0 0 0 0 0.25 0"/>
<feBlend mode="normal" in2="shape" result="effect1_innerShadow_134_204"/>
</filter>
</defs>
</svg>
