<svg width="48" height="90" viewBox="0 0 48 90" fill="none" xmlns="http://www.w3.org/2000/svg">
<path d="M16.4491 80.0145L19.4569 87.8768C19.7351 88.6038 20.2767 89.1995 20.9742 89.5452C21.2803 89.697 21.6093 89.7971 21.9481 89.8414L23.1602 90H23.8232H25.0608L25.956 89.941C26.272 89.9202 26.5856 89.8719 26.8932 89.7965C27.3201 89.692 27.7328 89.5361 28.1221 89.3323L28.6393 89.0616C29.0498 88.8467 29.4199 88.5624 29.7334 88.2211C30.2882 87.6171 30.6445 86.8575 30.7544 86.0447L31.2928 82.0602L31.9198 77.4209C31.973 77.0265 31.9774 76.6271 31.9327 76.2316L31.929 76.1994C31.8881 75.8372 31.8039 75.4812 31.6782 75.1391L31.6347 75.0208C31.5251 74.7225 31.3766 74.44 31.1931 74.1806C30.9954 73.9012 30.7589 73.6514 30.4909 73.4385L30.4267 73.3876C30.2091 73.2148 29.9748 73.0642 29.7273 72.9379L29.5795 72.8625C29.0453 72.5899 28.4724 72.4011 27.8808 72.3028L26.8729 72.1353L26.1329 72.0772C25.4779 72.0258 24.8201 72.0224 24.1647 72.067C23.496 72.1125 22.8316 72.2079 22.177 72.3523L20.7755 72.6616C20.1868 72.7915 19.6149 72.9885 19.071 73.2487L18.885 73.3377C18.6122 73.4682 18.3509 73.6213 18.1036 73.7954L17.9338 73.9149C17.4453 74.2588 17.0316 74.6983 16.718 75.2068C16.5346 75.504 16.3872 75.8219 16.2788 76.1538L16.2423 76.2655C16.0818 76.7571 16 77.271 16 77.7881C16 78.1389 16.0376 78.4887 16.1123 78.8314L16.1557 79.031C16.2286 79.3657 16.3267 79.6945 16.4491 80.0145Z" fill="#007616"/>
<path d="M24.4491 63.9855L27.4569 56.1232C27.7351 55.3962 28.2767 54.8005 28.9742 54.4548C29.2803 54.303 29.6093 54.2029 29.9481 54.1586L31.1602 54H31.8232H33.0608L33.956 54.059C34.272 54.0798 34.5856 54.1281 34.8932 54.2035C35.3201 54.308 35.7328 54.4639 36.1221 54.6677L36.6393 54.9384C37.0498 55.1533 37.4199 55.4376 37.7334 55.7789C38.2882 56.3829 38.6445 57.1425 38.7544 57.9553L39.2928 61.9398L39.9198 66.5791C39.973 66.9735 39.9774 67.3729 39.9327 67.7684L39.929 67.8006C39.8881 68.1628 39.8039 68.5188 39.6782 68.8609L39.6347 68.9792C39.5251 69.2775 39.3766 69.56 39.1931 69.8194C38.9954 70.0988 38.7589 70.3486 38.4909 70.5615L38.4267 70.6124C38.2091 70.7852 37.9748 70.9358 37.7273 71.0621L37.5795 71.1375C37.0453 71.4101 36.4724 71.5989 35.8808 71.6972L34.8729 71.8647L34.1329 71.9228C33.4779 71.9742 32.8201 71.9776 32.1647 71.933C31.496 71.8875 30.8316 71.7921 30.177 71.6477L28.7755 71.3384C28.1868 71.2085 27.6149 71.0115 27.071 70.7513L26.885 70.6623C26.6122 70.5318 26.3509 70.3787 26.1036 70.2046L25.9338 70.0851C25.4453 69.7412 25.0316 69.3017 24.718 68.7932C24.5346 68.496 24.3872 68.1781 24.2788 67.8462L24.2423 67.7345C24.0818 67.2429 24 66.729 24 66.2119C24 65.8611 24.0376 65.5113 24.1123 65.1686L24.1557 64.969C24.2286 64.6343 24.3267 64.3055 24.4491 63.9855Z" fill="#FFD330"/>
<path d="M16.4491 45.9855L19.4569 38.1232C19.7351 37.3962 20.2767 36.8005 20.9742 36.4548C21.2803 36.303 21.6093 36.2029 21.9481 36.1586L23.1602 36H23.8232H25.0608L25.956 36.059C26.272 36.0798 26.5856 36.1281 26.8932 36.2035C27.3201 36.308 27.7328 36.4639 28.1221 36.6677L28.6393 36.9384C29.0498 37.1533 29.4199 37.4376 29.7334 37.7789C30.2882 38.3829 30.6445 39.1425 30.7544 39.9553L31.2928 43.9398L31.9198 48.5791C31.973 48.9735 31.9774 49.3729 31.9327 49.7684L31.929 49.8006C31.8881 50.1628 31.8039 50.5188 31.6782 50.8609L31.6347 50.9792C31.5251 51.2775 31.3766 51.56 31.1931 51.8193C30.9954 52.0988 30.7589 52.3486 30.4909 52.5615L30.4267 52.6124C30.2091 52.7852 29.9748 52.9358 29.7273 53.0621L29.5795 53.1375C29.0453 53.4101 28.4724 53.5989 27.8808 53.6972L26.8729 53.8647L26.1329 53.9228C25.4779 53.9742 24.8201 53.9776 24.1647 53.933C23.496 53.8875 22.8316 53.7921 22.177 53.6477L20.7755 53.3384C20.1868 53.2085 19.6149 53.0115 19.071 52.7513L18.885 52.6623C18.6122 52.5318 18.3509 52.3787 18.1036 52.2046L17.9338 52.0851C17.4453 51.7412 17.0316 51.3017 16.718 50.7932C16.5346 50.496 16.3872 50.1781 16.2788 49.8462L16.2423 49.7345C16.0818 49.2429 16 48.729 16 48.2119C16 47.8611 16.0376 47.5113 16.1123 47.1686L16.1557 46.969C16.2286 46.6343 16.3267 46.3055 16.4491 45.9855Z" fill="#876E19"/>
<path d="M0.449072 81.9855L3.45693 74.1232C3.73507 73.3962 4.27674 72.8005 4.97416 72.4548C5.28025 72.303 5.60934 72.2029 5.9481 72.1586L7.16022 72H7.8232H9.06077L9.956 72.059C10.272 72.0798 10.5856 72.1281 10.8932 72.2035C11.3201 72.308 11.7328 72.4639 12.1221 72.6677L12.6393 72.9384C13.0498 73.1533 13.4199 73.4376 13.7334 73.7789C14.2882 74.3829 14.6445 75.1425 14.7544 75.9553L15.2928 79.9398L15.9198 84.5791C15.973 84.9735 15.9774 85.3729 15.9327 85.7684L15.929 85.8006C15.8881 86.1628 15.8039 86.5188 15.6782 86.8609L15.6347 86.9792C15.5251 87.2775 15.3766 87.56 15.1931 87.8194C14.9954 88.0988 14.7589 88.3486 14.4909 88.5615L14.4267 88.6124C14.2091 88.7852 13.9748 88.9358 13.7273 89.0621L13.5795 89.1375C13.0453 89.4101 12.4724 89.5989 11.8808 89.6972L10.8729 89.8647L10.1329 89.9228C9.47795 89.9742 8.82015 89.9776 8.16474 89.933C7.49599 89.8875 6.83158 89.7921 6.17704 89.6477L4.77552 89.3384C4.18678 89.2085 3.61488 89.0115 3.07102 88.7513L2.885 88.6623C2.61223 88.5318 2.35086 88.3787 2.1036 88.2046L1.93383 88.0851C1.44528 87.7412 1.03163 87.3017 0.717959 86.7932C0.534627 86.496 0.387212 86.1781 0.278807 85.8462L0.24232 85.7345C0.0817836 85.2429 0 84.729 0 84.2119C0 83.8611 0.0376368 83.5113 0.112264 83.1686L0.155715 82.969C0.228596 82.6343 0.326661 82.3055 0.449072 81.9855Z" fill="#007616"/>
<path d="M8.44907 62.0145L11.4569 69.8768C11.7351 70.6038 12.2767 71.1995 12.9742 71.5452C13.2803 71.697 13.6093 71.7971 13.9481 71.8414L15.1602 72H15.8232H17.0608L17.956 71.941C18.272 71.9202 18.5856 71.8719 18.8932 71.7965C19.3201 71.692 19.7328 71.5361 20.1221 71.3323L20.6393 71.0616C21.0498 70.8467 21.4199 70.5624 21.7334 70.2211C22.2882 69.6171 22.6445 68.8575 22.7544 68.0447L23.2928 64.0602L23.9198 59.4209C23.973 59.0265 23.9774 58.6271 23.9327 58.2316L23.929 58.1994C23.8881 57.8372 23.8039 57.4812 23.6782 57.1391L23.6347 57.0208C23.5251 56.7225 23.3766 56.44 23.1931 56.1807C22.9954 55.9012 22.7589 55.6514 22.4909 55.4385L22.4267 55.3876C22.2091 55.2148 21.9748 55.0642 21.7273 54.9379L21.5795 54.8625C21.0453 54.5899 20.4724 54.4011 19.8808 54.3028L18.8729 54.1353L18.1329 54.0772C17.4779 54.0258 16.8201 54.0224 16.1647 54.067C15.496 54.1125 14.8316 54.2079 14.177 54.3523L12.7755 54.6616C12.1868 54.7915 11.6149 54.9885 11.071 55.2487L10.885 55.3377C10.6122 55.4682 10.3509 55.6213 10.1036 55.7954L9.93383 55.9149C9.44528 56.2588 9.03163 56.6983 8.71796 57.2068C8.53463 57.504 8.38721 57.8219 8.27881 58.1538L8.24232 58.2655C8.08178 58.7571 8 59.271 8 59.7881C8 60.1389 8.03764 60.4887 8.11226 60.8314L8.15572 61.031C8.2286 61.3657 8.32666 61.6945 8.44907 62.0145Z" fill="#FFD330"/>
<path d="M47.5509 81.9855L44.5431 74.1232C44.2649 73.3962 43.7233 72.8005 43.0258 72.4548C42.7197 72.303 42.3907 72.2029 42.0519 72.1586L40.8398 72H40.1768H38.9392L38.044 72.059C37.728 72.0798 37.4144 72.1281 37.1068 72.2035C36.6799 72.308 36.2672 72.4639 35.8779 72.6677L35.3607 72.9384C34.9502 73.1533 34.5801 73.4376 34.2666 73.7789C33.7118 74.3829 33.3555 75.1425 33.2456 75.9553L32.7072 79.9398L32.0802 84.5791C32.027 84.9735 32.0226 85.3729 32.0673 85.7684L32.071 85.8006C32.1119 86.1628 32.1961 86.5188 32.3218 86.8609L32.3653 86.9792C32.4749 87.2775 32.6234 87.56 32.8069 87.8194C33.0046 88.0988 33.2411 88.3486 33.5091 88.5615L33.5733 88.6124C33.7909 88.7852 34.0252 88.9358 34.2727 89.0621L34.4205 89.1375C34.9547 89.4101 35.5276 89.5989 36.1192 89.6972L37.1271 89.8647L37.8671 89.9228C38.5221 89.9742 39.1799 89.9776 39.8353 89.933C40.504 89.8875 41.1684 89.7921 41.823 89.6477L43.2245 89.3384C43.8132 89.2085 44.3851 89.0115 44.929 88.7513L45.115 88.6623C45.3878 88.5318 45.6491 88.3787 45.8964 88.2046L46.0662 88.0851C46.5547 87.7412 46.9684 87.3017 47.282 86.7932C47.4654 86.496 47.6128 86.1781 47.7212 85.8462L47.7577 85.7345C47.9182 85.2429 48 84.729 48 84.2119C48 83.8611 47.9624 83.5113 47.8877 83.1686L47.8443 82.969C47.7714 82.6343 47.6733 82.3055 47.5509 81.9855Z" fill="#007616"/>
<path d="M16.4491 9.98552L19.4569 2.1232C19.7351 1.39616 20.2767 0.800504 20.9742 0.454753C21.2803 0.303006 21.6093 0.202942 21.9481 0.158614L23.1602 0L23.8232 0L25.0608 0L25.956 0.0589506C26.272 0.0797609 26.5856 0.128118 26.8932 0.203472C27.3201 0.30804 27.7328 0.463934 28.1221 0.667746L28.6393 0.938421C29.0498 1.15329 29.4199 1.43765 29.7334 1.77888C30.2882 2.38293 30.6445 3.14252 30.7544 3.95531L31.2928 7.93985L31.9198 12.5791C31.973 12.9735 31.9774 13.3729 31.9327 13.7684L31.929 13.8006C31.8881 14.1628 31.8039 14.5188 31.6782 14.8609L31.6347 14.9792C31.5251 15.2775 31.3766 15.56 31.1931 15.8194C30.9954 16.0988 30.7589 16.3486 30.4909 16.5615L30.4267 16.6124C30.2091 16.7852 29.9748 16.9358 29.7273 17.0621L29.5795 17.1375C29.0453 17.4101 28.4724 17.5989 27.8808 17.6972L26.8729 17.8647L26.1329 17.9228C25.4779 17.9742 24.8201 17.9776 24.1647 17.933C23.496 17.8875 22.8316 17.7921 22.177 17.6477L20.7755 17.3384C20.1868 17.2085 19.6149 17.0115 19.071 16.7513L18.885 16.6623C18.6122 16.5318 18.3509 16.3787 18.1036 16.2046L17.9338 16.0851C17.4453 15.7412 17.0316 15.3017 16.718 14.7932C16.5346 14.496 16.3872 14.1781 16.2788 13.8462L16.2423 13.7345C16.0818 13.2429 16 12.729 16 12.2119C16 11.8611 16.0376 11.5113 16.1123 11.1686L16.1557 10.969C16.2286 10.6343 16.3267 10.3055 16.4491 9.98552Z" fill="#007616"/>
<path d="M24.4491 26.0145L27.4569 33.8768C27.7351 34.6038 28.2767 35.1995 28.9742 35.5452C29.2803 35.697 29.6093 35.7971 29.9481 35.8414L31.1602 36H31.8232H33.0608L33.956 35.941C34.272 35.9202 34.5856 35.8719 34.8932 35.7965C35.3201 35.692 35.7328 35.5361 36.1221 35.3323L36.6393 35.0616C37.0498 34.8467 37.4199 34.5624 37.7334 34.2211C38.2882 33.6171 38.6445 32.8575 38.7544 32.0447L39.2928 28.0602L39.9198 23.4209C39.973 23.0265 39.9774 22.6271 39.9327 22.2316L39.929 22.1994C39.8881 21.8372 39.8039 21.4812 39.6782 21.1391L39.6347 21.0208C39.5251 20.7225 39.3766 20.44 39.1931 20.1806C38.9954 19.9012 38.7589 19.6514 38.4909 19.4385L38.4267 19.3876C38.2091 19.2148 37.9748 19.0642 37.7273 18.9379L37.5795 18.8625C37.0453 18.5899 36.4724 18.4011 35.8808 18.3028L34.8729 18.1353L34.1329 18.0772C33.4779 18.0258 32.8201 18.0224 32.1647 18.067C31.496 18.1125 30.8316 18.2079 30.177 18.3523L28.7755 18.6616C28.1868 18.7915 27.6149 18.9885 27.071 19.2487L26.885 19.3377C26.6122 19.4682 26.3509 19.6213 26.1036 19.7954L25.9338 19.9149C25.4453 20.2588 25.0316 20.6983 24.718 21.2068C24.5346 21.504 24.3872 21.8219 24.2788 22.1538L24.2423 22.2655C24.0818 22.7571 24 23.271 24 23.7881C24 24.1389 24.0376 24.4887 24.1123 24.8314L24.1557 25.031C24.2286 25.3657 24.3267 25.6945 24.4491 26.0145Z" fill="#FFD330"/>
<path d="M0.449072 8.01448L3.45693 15.8768C3.73507 16.6038 4.27674 17.1995 4.97416 17.5452C5.28025 17.697 5.60934 17.7971 5.9481 17.8414L7.16022 18H7.8232H9.06077L9.956 17.941C10.272 17.9202 10.5856 17.8719 10.8932 17.7965C11.3201 17.692 11.7328 17.5361 12.1221 17.3323L12.6393 17.0616C13.0498 16.8467 13.4199 16.5624 13.7334 16.2211C14.2882 15.6171 14.6445 14.8575 14.7544 14.0447L15.2928 10.0602L15.9198 5.4209C15.973 5.02652 15.9774 4.62707 15.9327 4.23163L15.929 4.19939C15.8881 3.83719 15.8039 3.48121 15.6782 3.13907L15.6347 3.02078C15.5251 2.72252 15.3766 2.44003 15.1931 2.18065C14.9954 1.90124 14.7589 1.65137 14.4909 1.43855L14.4267 1.38758C14.2091 1.21484 13.9748 1.0642 13.7273 0.937906L13.5795 0.862469C13.0453 0.589867 12.4724 0.4011 11.8808 0.302805L10.8729 0.135338L10.1329 0.0772324C9.47795 0.0258121 8.82015 0.0223885 8.16474 0.0669861C7.49599 0.11249 6.83158 0.207865 6.17704 0.352314L4.77552 0.66161C4.18678 0.791538 3.61488 0.988533 3.07102 1.24874L2.885 1.33774C2.61223 1.46824 2.35086 1.62132 2.1036 1.79536L1.93383 1.91487C1.44528 2.25877 1.03163 2.69828 0.717959 3.20677C0.534627 3.50396 0.387212 3.82186 0.278807 4.1538L0.24232 4.26553C0.0817836 4.7571 0 5.27096 0 5.78808C0 6.13887 0.0376368 6.48866 0.112264 6.83142L0.155715 7.031C0.228596 7.36574 0.326661 7.69451 0.449072 8.01448Z" fill="#007616"/>
<path d="M8.44907 27.9855L11.4569 20.1232C11.7351 19.3962 12.2767 18.8005 12.9742 18.4548C13.2803 18.303 13.6093 18.2029 13.9481 18.1586L15.1602 18H15.8232H17.0608L17.956 18.059C18.272 18.0798 18.5856 18.1281 18.8932 18.2035C19.3201 18.308 19.7328 18.4639 20.1221 18.6677L20.6393 18.9384C21.0498 19.1533 21.4199 19.4376 21.7334 19.7789C22.2882 20.3829 22.6445 21.1425 22.7544 21.9553L23.2928 25.9398L23.9198 30.5791C23.973 30.9735 23.9774 31.3729 23.9327 31.7684L23.929 31.8006C23.8881 32.1628 23.8039 32.5188 23.6782 32.8609L23.6347 32.9792C23.5251 33.2775 23.3766 33.56 23.1931 33.8193C22.9954 34.0988 22.7589 34.3486 22.4909 34.5615L22.4267 34.6124C22.2091 34.7852 21.9748 34.9358 21.7273 35.0621L21.5795 35.1375C21.0453 35.4101 20.4724 35.5989 19.8808 35.6972L18.8729 35.8647L18.1329 35.9228C17.4779 35.9742 16.8201 35.9776 16.1647 35.933C15.496 35.8875 14.8316 35.7921 14.177 35.6477L12.7755 35.3384C12.1868 35.2085 11.6149 35.0115 11.071 34.7513L10.885 34.6623C10.6122 34.5318 10.3509 34.3787 10.1036 34.2046L9.93383 34.0851C9.44528 33.7412 9.03163 33.3017 8.71796 32.7932C8.53463 32.496 8.38721 32.1781 8.27881 31.8462L8.24232 31.7345C8.08178 31.2429 8 30.729 8 30.2119C8 29.8611 8.03764 29.5113 8.11226 29.1686L8.15572 28.969C8.2286 28.6343 8.32666 28.3055 8.44907 27.9855Z" fill="#FFD330"/>
<path d="M47.5509 8.01448L44.5431 15.8768C44.2649 16.6038 43.7233 17.1995 43.0258 17.5452C42.7197 17.697 42.3907 17.7971 42.0519 17.8414L40.8398 18H40.1768H38.9392L38.044 17.941C37.728 17.9202 37.4144 17.8719 37.1068 17.7965C36.6799 17.692 36.2672 17.5361 35.8779 17.3323L35.3607 17.0616C34.9502 16.8467 34.5801 16.5624 34.2666 16.2211C33.7118 15.6171 33.3555 14.8575 33.2456 14.0447L32.7072 10.0602L32.0802 5.4209C32.027 5.02652 32.0226 4.62707 32.0673 4.23163L32.071 4.19939C32.1119 3.83719 32.1961 3.48121 32.3218 3.13907L32.3653 3.02078C32.4749 2.72252 32.6234 2.44003 32.8069 2.18065C33.0046 1.90124 33.2411 1.65137 33.5091 1.43855L33.5733 1.38758C33.7909 1.21484 34.0252 1.0642 34.2727 0.937906L34.4205 0.862469C34.9547 0.589867 35.5276 0.4011 36.1192 0.302805L37.1271 0.135338L37.8671 0.0772324C38.5221 0.0258121 39.1799 0.0223885 39.8353 0.0669861C40.504 0.11249 41.1684 0.207865 41.823 0.352314L43.2245 0.66161C43.8132 0.791538 44.3851 0.988533 44.929 1.24874L45.115 1.33774C45.3878 1.46824 45.6491 1.62132 45.8964 1.79536L46.0662 1.91487C46.5547 2.25877 46.9684 2.69828 47.282 3.20677C47.4654 3.50396 47.6128 3.82186 47.7212 4.1538L47.7577 4.26553C47.9182 4.7571 48 5.27096 48 5.78808C48 6.13887 47.9624 6.48866 47.8877 6.83142L47.8443 7.031C47.7714 7.36574 47.6733 7.69451 47.5509 8.01448Z" fill="#007616"/>
</svg>
