<svg width="48" height="54" viewBox="0 0 48 54" fill="none" xmlns="http://www.w3.org/2000/svg">
<g filter="url(#filter0_i_135_280)">
<path d="M16.4491 44.0145L19.4569 51.8768C19.7351 52.6038 20.2767 53.1995 20.9742 53.5452C21.2803 53.697 21.6093 53.7971 21.9481 53.8414L23.1602 54H23.8232H25.0608L25.956 53.941C26.272 53.9202 26.5856 53.8719 26.8932 53.7965C27.3201 53.692 27.7328 53.5361 28.1221 53.3323L28.6393 53.0616C29.0498 52.8467 29.4199 52.5624 29.7334 52.2211C30.2882 51.6171 30.6445 50.8575 30.7544 50.0447L31.2928 46.0602L31.9198 41.4209C31.973 41.0265 31.9774 40.6271 31.9327 40.2316L31.929 40.1994C31.8881 39.8372 31.8039 39.4812 31.6782 39.1391L31.6347 39.0208C31.5251 38.7225 31.3766 38.44 31.1931 38.1806C30.9954 37.9012 30.7589 37.6514 30.4909 37.4385L30.4267 37.3876C30.2091 37.2148 29.9748 37.0642 29.7273 36.9379L29.5795 36.8625C29.0453 36.5899 28.4724 36.4011 27.8808 36.3028L26.8729 36.1353L26.1329 36.0772C25.4779 36.0258 24.8201 36.0224 24.1647 36.067C23.496 36.1125 22.8316 36.2079 22.177 36.3523L20.7755 36.6616C20.1868 36.7915 19.6149 36.9885 19.071 37.2487L18.885 37.3377C18.6122 37.4682 18.3509 37.6213 18.1036 37.7954L17.9338 37.9149C17.4453 38.2588 17.0316 38.6983 16.718 39.2068C16.5346 39.504 16.3872 39.8219 16.2788 40.1538L16.2423 40.2655C16.0818 40.7571 16 41.271 16 41.7881C16 42.1389 16.0376 42.4887 16.1123 42.8314L16.1557 43.031C16.2286 43.3657 16.3267 43.6945 16.4491 44.0145Z" fill="#525252"/>
<path d="M24.4491 27.9855L27.4569 20.1232C27.7351 19.3962 28.2767 18.8005 28.9742 18.4548C29.2803 18.303 29.6093 18.2029 29.9481 18.1586L31.1602 18H31.8232H33.0608L33.956 18.059C34.272 18.0798 34.5856 18.1281 34.8932 18.2035C35.3201 18.308 35.7328 18.4639 36.1221 18.6677L36.6393 18.9384C37.0498 19.1533 37.4199 19.4376 37.7334 19.7789C38.2882 20.3829 38.6445 21.1425 38.7544 21.9553L39.2928 25.9398L39.9198 30.5791C39.973 30.9735 39.9774 31.3729 39.9327 31.7684L39.929 31.8006C39.8881 32.1628 39.8039 32.5188 39.6782 32.8609L39.6347 32.9792C39.5251 33.2775 39.3766 33.56 39.1931 33.8194C38.9954 34.0988 38.7589 34.3486 38.4909 34.5615L38.4267 34.6124C38.2091 34.7852 37.9748 34.9358 37.7273 35.0621L37.5795 35.1375C37.0453 35.4101 36.4724 35.5989 35.8808 35.6972L34.8729 35.8647L34.1329 35.9228C33.4779 35.9742 32.8201 35.9776 32.1647 35.933C31.496 35.8875 30.8316 35.7921 30.177 35.6477L28.7755 35.3384C28.1868 35.2085 27.6149 35.0115 27.071 34.7513L26.885 34.6623C26.6122 34.5318 26.3509 34.3787 26.1036 34.2046L25.9338 34.0851C25.4453 33.7412 25.0316 33.3017 24.718 32.7932C24.5346 32.496 24.3872 32.1781 24.2788 31.8462L24.2423 31.7345C24.0818 31.2429 24 30.729 24 30.2119C24 29.8611 24.0376 29.5113 24.1123 29.1686L24.1557 28.969C24.2286 28.6343 24.3267 28.3055 24.4491 27.9855Z" fill="#F3F3F3"/>
<path d="M16.4491 9.98552L19.4569 2.1232C19.7351 1.39616 20.2767 0.800504 20.9742 0.454753C21.2803 0.303006 21.6093 0.202942 21.9481 0.158614L23.1602 0L23.8232 0L25.0608 0L25.956 0.0589506C26.272 0.0797609 26.5856 0.128118 26.8932 0.203472C27.3201 0.30804 27.7328 0.463934 28.1221 0.667745L28.6393 0.938421C29.0498 1.15329 29.4199 1.43765 29.7334 1.77888C30.2882 2.38293 30.6445 3.14252 30.7544 3.95531L31.2928 7.93985L31.9198 12.5791C31.973 12.9735 31.9774 13.3729 31.9327 13.7684L31.929 13.8006C31.8881 14.1628 31.8039 14.5188 31.6782 14.8609L31.6347 14.9792C31.5251 15.2775 31.3766 15.56 31.1931 15.8193C30.9954 16.0988 30.7589 16.3486 30.4909 16.5615L30.4267 16.6124C30.2091 16.7852 29.9748 16.9358 29.7273 17.0621L29.5795 17.1375C29.0453 17.4101 28.4724 17.5989 27.8808 17.6972L26.8729 17.8647L26.1329 17.9228C25.4779 17.9742 24.8201 17.9776 24.1647 17.933C23.496 17.8875 22.8316 17.7921 22.177 17.6477L20.7755 17.3384C20.1868 17.2085 19.6149 17.0115 19.071 16.7513L18.885 16.6623C18.6122 16.5318 18.3509 16.3787 18.1036 16.2046L17.9338 16.0851C17.4453 15.7412 17.0316 15.3017 16.718 14.7932C16.5346 14.496 16.3872 14.1781 16.2788 13.8462L16.2423 13.7345C16.0818 13.2429 16 12.729 16 12.2119C16 11.8611 16.0376 11.5113 16.1123 11.1686L16.1557 10.969C16.2286 10.6343 16.3267 10.3055 16.4491 9.98552Z" fill="#BABABA"/>
<path d="M0.449072 45.9855L3.45693 38.1232C3.73507 37.3962 4.27674 36.8005 4.97416 36.4548C5.28025 36.303 5.60934 36.2029 5.9481 36.1586L7.16022 36H7.8232H9.06077L9.956 36.059C10.272 36.0798 10.5856 36.1281 10.8932 36.2035C11.3201 36.308 11.7328 36.4639 12.1221 36.6677L12.6393 36.9384C13.0498 37.1533 13.4199 37.4376 13.7334 37.7789C14.2882 38.3829 14.6445 39.1425 14.7544 39.9553L15.2928 43.9398L15.9198 48.5791C15.973 48.9735 15.9774 49.3729 15.9327 49.7684L15.929 49.8006C15.8881 50.1628 15.8039 50.5188 15.6782 50.8609L15.6347 50.9792C15.5251 51.2775 15.3766 51.56 15.1931 51.8194C14.9954 52.0988 14.7589 52.3486 14.4909 52.5615L14.4267 52.6124C14.2091 52.7852 13.9748 52.9358 13.7273 53.0621L13.5795 53.1375C13.0453 53.4101 12.4724 53.5989 11.8808 53.6972L10.8729 53.8647L10.1329 53.9228C9.47795 53.9742 8.82015 53.9776 8.16474 53.933C7.49599 53.8875 6.83158 53.7921 6.17704 53.6477L4.77552 53.3384C4.18678 53.2085 3.61488 53.0115 3.07102 52.7513L2.885 52.6623C2.61223 52.5318 2.35086 52.3787 2.1036 52.2046L1.93383 52.0851C1.44528 51.7412 1.03163 51.3017 0.717959 50.7932C0.534627 50.496 0.387212 50.1781 0.278807 49.8462L0.24232 49.7345C0.0817836 49.2429 0 48.729 0 48.2119C0 47.8611 0.0376368 47.5113 0.112264 47.1686L0.155715 46.969C0.228596 46.6343 0.326661 46.3055 0.449072 45.9855Z" fill="#525252"/>
<path d="M8.44907 26.0145L11.4569 33.8768C11.7351 34.6038 12.2767 35.1995 12.9742 35.5452C13.2803 35.697 13.6093 35.7971 13.9481 35.8414L15.1602 36H15.8232H17.0608L17.956 35.941C18.272 35.9202 18.5856 35.8719 18.8932 35.7965C19.3201 35.692 19.7328 35.5361 20.1221 35.3323L20.6393 35.0616C21.0498 34.8467 21.4199 34.5624 21.7334 34.2211C22.2882 33.6171 22.6445 32.8575 22.7544 32.0447L23.2928 28.0602L23.9198 23.4209C23.973 23.0265 23.9774 22.6271 23.9327 22.2316L23.929 22.1994C23.8881 21.8372 23.8039 21.4812 23.6782 21.1391L23.6347 21.0208C23.5251 20.7225 23.3766 20.44 23.1931 20.1807C22.9954 19.9012 22.7589 19.6514 22.4909 19.4385L22.4267 19.3876C22.2091 19.2148 21.9748 19.0642 21.7273 18.9379L21.5795 18.8625C21.0453 18.5899 20.4724 18.4011 19.8808 18.3028L18.8729 18.1353L18.1329 18.0772C17.4779 18.0258 16.8201 18.0224 16.1647 18.067C15.496 18.1125 14.8316 18.2079 14.177 18.3523L12.7755 18.6616C12.1868 18.7915 11.6149 18.9885 11.071 19.2487L10.885 19.3377C10.6122 19.4682 10.3509 19.6213 10.1036 19.7954L9.93383 19.9149C9.44528 20.2588 9.03163 20.6983 8.71796 21.2068C8.53463 21.504 8.38721 21.8219 8.27881 22.1538L8.24232 22.2655C8.08178 22.7571 8 23.271 8 23.7881C8 24.1389 8.03764 24.4887 8.11226 24.8314L8.15572 25.031C8.2286 25.3657 8.32666 25.6945 8.44907 26.0145Z" fill="#F3F3F3"/>
<path d="M47.5509 45.9855L44.5431 38.1232C44.2649 37.3962 43.7233 36.8005 43.0258 36.4548C42.7197 36.303 42.3907 36.2029 42.0519 36.1586L40.8398 36H40.1768H38.9392L38.044 36.059C37.728 36.0798 37.4144 36.1281 37.1068 36.2035C36.6799 36.308 36.2672 36.4639 35.8779 36.6677L35.3607 36.9384C34.9502 37.1533 34.5801 37.4376 34.2666 37.7789C33.7118 38.3829 33.3555 39.1425 33.2456 39.9553L32.7072 43.9398L32.0802 48.5791C32.027 48.9735 32.0226 49.3729 32.0673 49.7684L32.071 49.8006C32.1119 50.1628 32.1961 50.5188 32.3218 50.8609L32.3653 50.9792C32.4749 51.2775 32.6234 51.56 32.8069 51.8194C33.0046 52.0988 33.2411 52.3486 33.5091 52.5615L33.5733 52.6124C33.7909 52.7852 34.0252 52.9358 34.2727 53.0621L34.4205 53.1375C34.9547 53.4101 35.5276 53.5989 36.1192 53.6972L37.1271 53.8647L37.8671 53.9228C38.5221 53.9742 39.1799 53.9776 39.8353 53.933C40.504 53.8875 41.1684 53.7921 41.823 53.6477L43.2245 53.3384C43.8132 53.2085 44.3851 53.0115 44.929 52.7513L45.115 52.6623C45.3878 52.5318 45.6491 52.3787 45.8964 52.2046L46.0662 52.0851C46.5547 51.7412 46.9684 51.3017 47.282 50.7932C47.4654 50.496 47.6128 50.1781 47.7212 49.8462L47.7577 49.7345C47.9182 49.2429 48 48.729 48 48.2119C48 47.8611 47.9624 47.5113 47.8877 47.1686L47.8443 46.969C47.7714 46.6343 47.6733 46.3055 47.5509 45.9855Z" fill="#525252"/>
</g>
<defs>
<filter id="filter0_i_135_280" x="0" y="0" width="48" height="58" filterUnits="userSpaceOnUse" color-interpolation-filters="sRGB">
<feFlood flood-opacity="0" result="BackgroundImageFix"/>
<feBlend mode="normal" in="SourceGraphic" in2="BackgroundImageFix" result="shape"/>
<feColorMatrix in="SourceAlpha" type="matrix" values="0 0 0 0 0 0 0 0 0 0 0 0 0 0 0 0 0 0 127 0" result="hardAlpha"/>
<feOffset dy="4"/>
<feGaussianBlur stdDeviation="2"/>
<feComposite in2="hardAlpha" operator="arithmetic" k2="-1" k3="1"/>
<feColorMatrix type="matrix" values="0 0 0 0 0 0 0 0 0 0 0 0 0 0 0 0 0 0 0.25 0"/>
<feBlend mode="normal" in2="shape" result="effect1_innerShadow_135_280"/>
</filter>
</defs>
</svg>
