<svg width="84" height="94" viewBox="0 0 84 94" fill="none" xmlns="http://www.w3.org/2000/svg">
<path d="M3.14206 41.7626L18.7453 82.5484C20.1882 86.3199 22.9981 89.4099 26.616 91.2035C28.2038 91.9907 29.911 92.5097 31.6683 92.7397L37.9561 93.5625H41.3954H47.8153L52.4592 93.2567C54.0986 93.1487 55.7254 92.8979 57.3212 92.507C59.5356 91.9645 61.6762 91.1558 63.6961 90.0986L66.3787 88.6944C68.5081 87.5798 70.4284 86.1047 72.0543 84.3345C74.9325 81.2011 76.781 77.2607 77.3507 73.0443L80.144 52.3745L83.3962 28.3084C83.6727 26.2626 83.6952 24.1904 83.4633 22.1391L83.4444 21.9718C83.232 20.0929 82.7951 18.2463 82.143 16.4714L81.9175 15.8578C81.3491 14.3106 80.5788 12.8452 79.6267 11.4996C78.6011 10.0502 77.3745 8.75396 75.9838 7.64996L75.6508 7.3856C74.522 6.48947 73.3067 5.70804 72.0229 5.05289L71.2562 4.66156C68.4852 3.24743 65.5131 2.26821 62.4442 1.75829L57.2158 0.889565L51.7803 0.462807C49.4458 0.279518 47.101 0.267303 44.7646 0.426285L41.5369 0.645912C39.1531 0.808121 36.7847 1.1481 34.4514 1.66301L25.5855 3.61961C22.5314 4.2936 19.5647 5.31552 16.7434 6.66534L15.7784 7.12704C14.3635 7.804 13.0076 8.59808 11.7249 9.50095L10.8443 10.1209C8.30989 11.9049 6.1641 14.1848 4.53691 16.8226C3.58588 18.3643 2.82116 20.0134 2.25881 21.7354L2.06953 22.3149C1.23675 24.8649 0.8125 27.5306 0.8125 30.2131C0.8125 32.0329 1.00774 33.8474 1.39487 35.6255L1.62027 36.6608C1.99834 38.3973 2.50706 40.1028 3.14206 41.7626Z" fill="#FFD330"/>
</svg>
