<svg width="83" height="94" viewBox="0 0 83 94" fill="none" xmlns="http://www.w3.org/2000/svg">
<path d="M2.32956 51.9874L17.9328 11.2016C19.3757 7.4301 22.1856 4.34011 25.8035 2.54653C27.3913 1.75934 29.0985 1.24026 30.8558 1.01031L37.1436 0.1875L40.5829 0.1875L47.0028 0.1875L51.6467 0.493306C53.2861 0.601259 54.9129 0.852113 56.5087 1.24301C58.7231 1.78546 60.8637 2.59416 62.8836 3.65143L65.5662 5.05556C67.6956 6.17018 69.6159 7.64529 71.2418 9.41545C74.12 12.5489 75.9685 16.4893 76.5382 20.7057L79.3315 41.3755L82.5837 65.4416C82.8602 67.4874 82.8827 69.5596 82.6508 71.6109L82.6319 71.7782C82.4195 73.6571 81.9826 75.5037 81.3305 77.2786L81.105 77.8922C80.5366 79.4394 79.7663 80.9048 78.8142 82.2504C77.7886 83.6998 76.562 84.996 75.1713 86.1L74.8383 86.3644C73.7095 87.2605 72.4942 88.042 71.2104 88.6971L70.4437 89.0884C67.6727 90.5026 64.7006 91.4818 61.6317 91.9917L56.4033 92.8604L50.9678 93.2872C48.6333 93.4705 46.2885 93.4827 43.9521 93.3237L40.7244 93.1041C38.3406 92.9419 35.9722 92.6019 33.6389 92.087L24.773 90.1304C21.7189 89.4564 18.7522 88.4345 15.9309 87.0847L14.9659 86.623C13.551 85.946 12.1951 85.1519 10.9124 84.2491L10.0318 83.6291C7.49739 81.8451 5.3516 79.5652 3.72441 76.9274C2.77338 75.3857 2.00866 73.7366 1.44631 72.0146L1.25703 71.4351C0.424252 68.8851 0 66.2194 0 63.5369C0 61.7171 0.195241 59.9026 0.58237 58.1245L0.807772 57.0892C1.18584 55.3527 1.69456 53.6472 2.32956 51.9874Z" fill="#007616"/>
</svg>
