<svg width="91" height="102" viewBox="0 0 91 102" fill="none" xmlns="http://www.w3.org/2000/svg">
<g filter="url(#filter0_d_163_402)">
<path d="M6.32956 51.7999L21.9328 11.0141C23.3757 7.2426 26.1856 4.15261 29.8035 2.35903C31.3913 1.57184 33.0985 1.05276 34.8558 0.822808L41.1436 0L44.5829 0L51.0028 0L55.6467 0.305806C57.2861 0.413759 58.9129 0.664613 60.5087 1.05551C62.7231 1.59796 64.8637 2.40666 66.8836 3.46393L69.5662 4.86806C71.6956 5.98268 73.6159 7.45779 75.2418 9.22795C78.12 12.3614 79.9685 16.3018 80.5382 20.5182L83.3315 41.188L86.5837 65.2541C86.8602 67.2999 86.8827 69.3721 86.6508 71.4234L86.6319 71.5907C86.4195 73.4696 85.9826 75.3162 85.3305 77.0911L85.105 77.7047C84.5366 79.2519 83.7663 80.7173 82.8142 82.0629C81.7886 83.5123 80.562 84.8085 79.1713 85.9125L78.8383 86.1769C77.7095 87.073 76.4942 87.8545 75.2104 88.5096L74.4437 88.9009C71.6727 90.3151 68.7006 91.2943 65.6317 91.8042L60.4033 92.6729L54.9678 93.0997C52.6333 93.283 50.2885 93.2952 47.9521 93.1362L44.7244 92.9166C42.3406 92.7544 39.9722 92.4144 37.6389 91.8995L28.773 89.9429C25.7189 89.2689 22.7522 88.247 19.9309 86.8972L18.9659 86.4355C17.551 85.7585 16.1951 84.9644 14.9124 84.0616L14.0318 83.4416C11.4974 81.6576 9.3516 79.3777 7.72441 76.7399C6.77338 75.1982 6.00866 73.5491 5.44631 71.8271L5.25703 71.2476C4.42425 68.6976 4 66.0319 4 63.3494C4 61.5296 4.19524 59.7151 4.58237 57.937L4.80777 56.9017C5.18584 55.1652 5.69456 53.4597 6.32956 51.7999Z" fill="#D9B229"/>
</g>
<defs>
<filter id="filter0_d_163_402" x="0" y="0" width="90.8093" height="101.247" filterUnits="userSpaceOnUse" color-interpolation-filters="sRGB">
<feFlood flood-opacity="0" result="BackgroundImageFix"/>
<feColorMatrix in="SourceAlpha" type="matrix" values="0 0 0 0 0 0 0 0 0 0 0 0 0 0 0 0 0 0 127 0" result="hardAlpha"/>
<feOffset dy="4"/>
<feGaussianBlur stdDeviation="2"/>
<feComposite in2="hardAlpha" operator="out"/>
<feColorMatrix type="matrix" values="0 0 0 0 0 0 0 0 0 0 0 0 0 0 0 0 0 0 0.25 0"/>
<feBlend mode="normal" in2="BackgroundImageFix" result="effect1_dropShadow_163_402"/>
<feBlend mode="normal" in="SourceGraphic" in2="effect1_dropShadow_163_402" result="shape"/>
</filter>
</defs>
</svg>
