<svg width="20" height="18" viewBox="0 0 20 18" fill="none" xmlns="http://www.w3.org/2000/svg">
<path d="M9.01448 1.44907L16.8768 4.45693C17.6038 4.73507 18.1995 5.27674 18.5452 5.97416C18.697 6.28025 18.7971 6.60934 18.8414 6.9481L19 8.16022V8.8232V10.0608L18.941 10.956C18.9202 11.272 18.8719 11.5856 18.7965 11.8932C18.692 12.3201 18.5361 12.7328 18.3323 13.1221L18.0616 13.6393C17.8467 14.0498 17.5624 14.4199 17.2211 14.7334C16.6171 15.2882 15.8575 15.6445 15.0447 15.7544L11.0602 16.2928L6.4209 16.9198C6.02652 16.973 5.62707 16.9774 5.23163 16.9327L5.19939 16.929C4.83719 16.8881 4.48121 16.8039 4.13907 16.6782L4.02078 16.6347C3.72252 16.5251 3.44003 16.3766 3.18065 16.1931C2.90124 15.9954 2.65137 15.7589 2.43855 15.4909L2.38758 15.4267C2.21484 15.2091 2.0642 14.9748 1.93791 14.7273L1.86247 14.5795C1.58987 14.0453 1.4011 13.4724 1.3028 12.8808L1.13534 11.8729L1.07723 11.1329C1.02581 10.4779 1.02239 9.82015 1.06699 9.16474C1.11249 8.49599 1.20786 7.83158 1.35231 7.17704L1.66161 5.77552C1.79154 5.18678 1.98853 4.61488 2.24874 4.07102L2.33774 3.885C2.46824 3.61223 2.62132 3.35086 2.79536 3.1036L2.91487 2.93383C3.25877 2.44528 3.69828 2.03163 4.20677 1.71796C4.50396 1.53463 4.82186 1.38721 5.1538 1.27881L5.26553 1.24232C5.7571 1.08178 6.27096 1 6.78808 1C7.13887 1 7.48866 1.03764 7.83142 1.11226L8.031 1.15572C8.36574 1.2286 8.69451 1.32666 9.01448 1.44907Z" stroke="#007616"/>
</svg>
