<svg width="94" height="16" viewBox="0 0 94 16" fill="none" xmlns="http://www.w3.org/2000/svg">
<g filter="url(#filter0_i_103_402)">
<path d="M85.9855 15.5509L78.1232 12.5431C77.3962 12.2649 76.8005 11.7233 76.4548 11.0258C76.303 10.7197 76.2029 10.3907 76.1586 10.0519L76 8.83978V8.1768V6.93923L76.059 6.044C76.0798 5.72798 76.1281 5.41437 76.2035 5.10676C76.308 4.67988 76.4639 4.26725 76.6677 3.87786L76.9384 3.36074C77.1533 2.95024 77.4376 2.58006 77.7789 2.26663C78.3829 1.71181 79.1425 1.35548 79.9553 1.24564L83.9398 0.707182L88.5791 0.0802488C88.9735 0.0269537 89.3729 0.0226088 89.7684 0.0673122L89.8006 0.0709572C90.1628 0.111902 90.5188 0.196128 90.8609 0.321832L90.9792 0.365294C91.2775 0.474875 91.56 0.623361 91.8194 0.806898C92.0988 1.00461 92.3486 1.24106 92.5615 1.50914L92.6124 1.57333C92.7852 1.79094 92.9358 2.02521 93.0621 2.27269L93.1375 2.4205C93.4101 2.95466 93.5989 3.5276 93.6972 4.11919L93.8647 5.12707L93.9228 5.86714C93.9742 6.52205 93.9776 7.17985 93.933 7.83526C93.8875 8.50401 93.7921 9.16842 93.6477 9.82296L93.3384 11.2245C93.2085 11.8132 93.0115 12.3851 92.7513 12.929L92.6623 13.115C92.5318 13.3878 92.3787 13.6491 92.2046 13.8964L92.0851 14.0662C91.7412 14.5547 91.3017 14.9684 90.7932 15.282C90.496 15.4654 90.1781 15.6128 89.8462 15.7212L89.7345 15.7577C89.2429 15.9182 88.729 16 88.2119 16C87.8611 16 87.5113 15.9624 87.1686 15.8877L86.969 15.8443C86.6343 15.7714 86.3055 15.6733 85.9855 15.5509Z" fill="white"/>
<path d="M8.01448 15.5509L15.8768 12.5431C16.6038 12.2649 17.1995 11.7233 17.5452 11.0258C17.697 10.7197 17.7971 10.3907 17.8414 10.0519L18 8.83978V8.1768V6.93923L17.941 6.044C17.9202 5.72798 17.8719 5.41437 17.7965 5.10676C17.692 4.67988 17.5361 4.26725 17.3323 3.87786L17.0616 3.36074C16.8467 2.95024 16.5624 2.58006 16.2211 2.26663C15.6171 1.71181 14.8575 1.35548 14.0447 1.24564L10.0602 0.707182L5.4209 0.0802488C5.02652 0.0269537 4.62707 0.0226088 4.23163 0.0673122L4.19939 0.0709572C3.83719 0.111902 3.48121 0.196128 3.13907 0.321832L3.02078 0.365294C2.72252 0.474875 2.44003 0.623361 2.18065 0.806898C1.90124 1.00461 1.65137 1.24106 1.43855 1.50914L1.38758 1.57333C1.21484 1.79094 1.0642 2.02521 0.937906 2.27269L0.862469 2.4205C0.589867 2.95466 0.4011 3.5276 0.302805 4.11919L0.135338 5.12707L0.0772324 5.86714C0.0258121 6.52205 0.0223885 7.17985 0.0669861 7.83526C0.11249 8.50401 0.207865 9.16842 0.352314 9.82296L0.66161 11.2245C0.791538 11.8132 0.988533 12.3851 1.24874 12.929L1.33774 13.115C1.46824 13.3878 1.62132 13.6491 1.79536 13.8964L1.91487 14.0662C2.25877 14.5547 2.69828 14.9684 3.20677 15.282C3.50396 15.4654 3.82186 15.6128 4.1538 15.7212L4.26553 15.7577C4.7571 15.9182 5.27096 16 5.78808 16C6.13887 16 6.48866 15.9624 6.83142 15.8877L7.031 15.8443C7.36574 15.7714 7.69451 15.6733 8.01448 15.5509Z" fill="white"/>
<path d="M8 1V13H86.8321L88 1H8Z" fill="white"/>
</g>
<defs>
<filter id="filter0_i_103_402" x="0.0358887" y="0.0367432" width="93.9282" height="19.9633" filterUnits="userSpaceOnUse" color-interpolation-filters="sRGB">
<feFlood flood-opacity="0" result="BackgroundImageFix"/>
<feBlend mode="normal" in="SourceGraphic" in2="BackgroundImageFix" result="shape"/>
<feColorMatrix in="SourceAlpha" type="matrix" values="0 0 0 0 0 0 0 0 0 0 0 0 0 0 0 0 0 0 127 0" result="hardAlpha"/>
<feOffset dy="4"/>
<feGaussianBlur stdDeviation="2"/>
<feComposite in2="hardAlpha" operator="arithmetic" k2="-1" k3="1"/>
<feColorMatrix type="matrix" values="0 0 0 0 0 0 0 0 0 0 0 0 0 0 0 0 0 0 0.25 0"/>
<feBlend mode="normal" in2="shape" result="effect1_innerShadow_103_402"/>
</filter>
</defs>
</svg>
