<svg width="90" height="48" viewBox="0 0 90 48" fill="none" xmlns="http://www.w3.org/2000/svg">
<g filter="url(#filter0_i_135_295)">
<path d="M80.0145 31.5509L87.8768 28.5431C88.6038 28.2649 89.1995 27.7233 89.5452 27.0258C89.697 26.7197 89.7971 26.3907 89.8414 26.0519L90 24.8398V24.1768V22.9392L89.941 22.044C89.9202 21.728 89.8719 21.4144 89.7965 21.1068C89.692 20.6799 89.5361 20.2672 89.3323 19.8779L89.0616 19.3607C88.8467 18.9502 88.5624 18.5801 88.2211 18.2666C87.6171 17.7118 86.8575 17.3555 86.0447 17.2456L82.0602 16.7072L77.4209 16.0802C77.0265 16.027 76.6271 16.0226 76.2316 16.0673L76.1994 16.071C75.8372 16.1119 75.4812 16.1961 75.1391 16.3218L75.0208 16.3653C74.7225 16.4749 74.44 16.6234 74.1806 16.8069C73.9012 17.0046 73.6514 17.2411 73.4385 17.5091L73.3876 17.5733C73.2148 17.7909 73.0642 18.0252 72.9379 18.2727L72.8625 18.4205C72.5899 18.9547 72.4011 19.5276 72.3028 20.1192L72.1353 21.1271L72.0772 21.8671C72.0258 22.5221 72.0224 23.1799 72.067 23.8353C72.1125 24.504 72.2079 25.1684 72.3523 25.823L72.6616 27.2245C72.7915 27.8132 72.9885 28.3851 73.2487 28.929L73.3377 29.115C73.4682 29.3878 73.6213 29.6491 73.7954 29.8964L73.9149 30.0662C74.2588 30.5547 74.6983 30.9684 75.2068 31.282C75.504 31.4654 75.8219 31.6128 76.1538 31.7212L76.2655 31.7577C76.7571 31.9182 77.271 32 77.7881 32C78.1389 32 78.4887 31.9624 78.8314 31.8877L79.031 31.8443C79.3657 31.7714 79.6945 31.6733 80.0145 31.5509Z" fill="#007616"/>
<path d="M63.9855 23.5509L56.1232 20.5431C55.3962 20.2649 54.8005 19.7233 54.4548 19.0258C54.303 18.7197 54.2029 18.3907 54.1586 18.0519L54 16.8398V16.1768V14.9392L54.059 14.044C54.0798 13.728 54.1281 13.4144 54.2035 13.1068C54.308 12.6799 54.4639 12.2672 54.6677 11.8779L54.9384 11.3607C55.1533 10.9502 55.4376 10.5801 55.7789 10.2666C56.3829 9.71181 57.1425 9.35548 57.9553 9.24564L61.9398 8.70718L66.5791 8.08025C66.9735 8.02695 67.3729 8.02261 67.7684 8.06731L67.8006 8.07096C68.1628 8.1119 68.5188 8.19613 68.8609 8.32183L68.9792 8.36529C69.2775 8.47488 69.56 8.62336 69.8194 8.8069C70.0988 9.00461 70.3486 9.24106 70.5615 9.50914L70.6124 9.57333C70.7852 9.79094 70.9358 10.0252 71.0621 10.2727L71.1375 10.4205C71.4101 10.9547 71.5989 11.5276 71.6972 12.1192L71.8647 13.1271L71.9228 13.8671C71.9742 14.5221 71.9776 15.1799 71.933 15.8353C71.8875 16.504 71.7921 17.1684 71.6477 17.823L71.3384 19.2245C71.2085 19.8132 71.0115 20.3851 70.7513 20.929L70.6623 21.115C70.5318 21.3878 70.3787 21.6491 70.2046 21.8964L70.0851 22.0662C69.7412 22.5547 69.3017 22.9684 68.7932 23.282C68.496 23.4654 68.1781 23.6128 67.8462 23.7212L67.7345 23.7577C67.2429 23.9182 66.729 24 66.2119 24C65.8611 24 65.5113 23.9624 65.1686 23.8877L64.969 23.8443C64.6343 23.7714 64.3055 23.6733 63.9855 23.5509Z" fill="#FFD330"/>
<path d="M45.9855 31.5509L38.1232 28.5431C37.3962 28.2649 36.8005 27.7233 36.4548 27.0258C36.303 26.7197 36.2029 26.3907 36.1586 26.0519L36 24.8398V24.1768V22.9392L36.059 22.044C36.0798 21.728 36.1281 21.4144 36.2035 21.1068C36.308 20.6799 36.4639 20.2672 36.6677 19.8779L36.9384 19.3607C37.1533 18.9502 37.4376 18.5801 37.7789 18.2666C38.3829 17.7118 39.1425 17.3555 39.9553 17.2456L43.9398 16.7072L48.5791 16.0802C48.9735 16.027 49.3729 16.0226 49.7684 16.0673L49.8006 16.071C50.1628 16.1119 50.5188 16.1961 50.8609 16.3218L50.9792 16.3653C51.2775 16.4749 51.56 16.6234 51.8193 16.8069C52.0988 17.0046 52.3486 17.2411 52.5615 17.5091L52.6124 17.5733C52.7852 17.7909 52.9358 18.0252 53.0621 18.2727L53.1375 18.4205C53.4101 18.9547 53.5989 19.5276 53.6972 20.1192L53.8647 21.1271L53.9228 21.8671C53.9742 22.5221 53.9776 23.1799 53.933 23.8353C53.8875 24.504 53.7921 25.1684 53.6477 25.823L53.3384 27.2245C53.2085 27.8132 53.0115 28.3851 52.7513 28.929L52.6623 29.115C52.5318 29.3878 52.3787 29.6491 52.2046 29.8964L52.0851 30.0662C51.7412 30.5547 51.3017 30.9684 50.7932 31.282C50.496 31.4654 50.1781 31.6128 49.8462 31.7212L49.7345 31.7577C49.2429 31.9182 48.729 32 48.2119 32C47.8611 32 47.5113 31.9624 47.1686 31.8877L46.969 31.8443C46.6343 31.7714 46.3055 31.6733 45.9855 31.5509Z" fill="#876E19"/>
<path d="M81.9855 47.5509L74.1232 44.5431C73.3962 44.2649 72.8005 43.7233 72.4548 43.0258C72.303 42.7197 72.2029 42.3907 72.1586 42.0519L72 40.8398V40.1768V38.9392L72.059 38.044C72.0798 37.728 72.1281 37.4144 72.2035 37.1068C72.308 36.6799 72.4639 36.2672 72.6677 35.8779L72.9384 35.3607C73.1533 34.9502 73.4376 34.5801 73.7789 34.2666C74.3829 33.7118 75.1425 33.3555 75.9553 33.2456L79.9398 32.7072L84.5791 32.0802C84.9735 32.027 85.3729 32.0226 85.7684 32.0673L85.8006 32.071C86.1628 32.1119 86.5188 32.1961 86.8609 32.3218L86.9792 32.3653C87.2775 32.4749 87.56 32.6234 87.8194 32.8069C88.0988 33.0046 88.3486 33.2411 88.5615 33.5091L88.6124 33.5733C88.7852 33.7909 88.9358 34.0252 89.0621 34.2727L89.1375 34.4205C89.4101 34.9547 89.5989 35.5276 89.6972 36.1192L89.8647 37.1271L89.9228 37.8671C89.9742 38.5221 89.9776 39.1799 89.933 39.8353C89.8875 40.504 89.7921 41.1684 89.6477 41.823L89.3384 43.2245C89.2085 43.8132 89.0115 44.3851 88.7513 44.929L88.6623 45.115C88.5318 45.3878 88.3787 45.6491 88.2046 45.8964L88.0851 46.0662C87.7412 46.5547 87.3017 46.9684 86.7932 47.282C86.496 47.4654 86.1781 47.6128 85.8462 47.7212L85.7345 47.7577C85.2429 47.9182 84.729 48 84.2119 48C83.8611 48 83.5113 47.9624 83.1686 47.8877L82.969 47.8443C82.6343 47.7714 82.3055 47.6733 81.9855 47.5509Z" fill="#007616"/>
<path d="M62.0145 39.5509L69.8768 36.5431C70.6038 36.2649 71.1995 35.7233 71.5452 35.0258C71.697 34.7197 71.7971 34.3907 71.8414 34.0519L72 32.8398V32.1768V30.9392L71.941 30.044C71.9202 29.728 71.8719 29.4144 71.7965 29.1068C71.692 28.6799 71.5361 28.2672 71.3323 27.8779L71.0616 27.3607C70.8467 26.9502 70.5624 26.5801 70.2211 26.2666C69.6171 25.7118 68.8575 25.3555 68.0447 25.2456L64.0602 24.7072L59.4209 24.0802C59.0265 24.027 58.6271 24.0226 58.2316 24.0673L58.1994 24.071C57.8372 24.1119 57.4812 24.1961 57.1391 24.3218L57.0208 24.3653C56.7225 24.4749 56.44 24.6234 56.1807 24.8069C55.9012 25.0046 55.6514 25.2411 55.4385 25.5091L55.3876 25.5733C55.2148 25.7909 55.0642 26.0252 54.9379 26.2727L54.8625 26.4205C54.5899 26.9547 54.4011 27.5276 54.3028 28.1192L54.1353 29.1271L54.0772 29.8671C54.0258 30.5221 54.0224 31.1799 54.067 31.8353C54.1125 32.504 54.2079 33.1684 54.3523 33.823L54.6616 35.2245C54.7915 35.8132 54.9885 36.3851 55.2487 36.929L55.3377 37.115C55.4682 37.3878 55.6213 37.6491 55.7954 37.8964L55.9149 38.0662C56.2588 38.5547 56.6983 38.9684 57.2068 39.282C57.504 39.4654 57.8219 39.6128 58.1538 39.7212L58.2655 39.7577C58.7571 39.9182 59.271 40 59.7881 40C60.1389 40 60.4887 39.9624 60.8314 39.8877L61.031 39.8443C61.3657 39.7714 61.6945 39.6733 62.0145 39.5509Z" fill="#FFD330"/>
<path d="M81.9855 0.449072L74.1232 3.45693C73.3962 3.73507 72.8005 4.27674 72.4548 4.97416C72.303 5.28025 72.2029 5.60934 72.1586 5.9481L72 7.16022V7.8232V9.06077L72.059 9.956C72.0798 10.272 72.1281 10.5856 72.2035 10.8932C72.308 11.3201 72.4639 11.7328 72.6677 12.1221L72.9384 12.6393C73.1533 13.0498 73.4376 13.4199 73.7789 13.7334C74.3829 14.2882 75.1425 14.6445 75.9553 14.7544L79.9398 15.2928L84.5791 15.9198C84.9735 15.973 85.3729 15.9774 85.7684 15.9327L85.8006 15.929C86.1628 15.8881 86.5188 15.8039 86.8609 15.6782L86.9792 15.6347C87.2775 15.5251 87.56 15.3766 87.8194 15.1931C88.0988 14.9954 88.3486 14.7589 88.5615 14.4909L88.6124 14.4267C88.7852 14.2091 88.9358 13.9748 89.0621 13.7273L89.1375 13.5795C89.4101 13.0453 89.5989 12.4724 89.6972 11.8808L89.8647 10.8729L89.9228 10.1329C89.9742 9.47795 89.9776 8.82015 89.933 8.16474C89.8875 7.49599 89.7921 6.83158 89.6477 6.17704L89.3384 4.77552C89.2085 4.18678 89.0115 3.61488 88.7513 3.07102L88.6623 2.885C88.5318 2.61223 88.3787 2.35086 88.2046 2.1036L88.0851 1.93383C87.7412 1.44528 87.3017 1.03163 86.7932 0.717959C86.496 0.534627 86.1781 0.387212 85.8462 0.278807L85.7345 0.24232C85.2429 0.0817836 84.729 0 84.2119 0C83.8611 0 83.5113 0.0376368 83.1686 0.112264L82.969 0.155715C82.6343 0.228596 82.3055 0.326661 81.9855 0.449072Z" fill="#007616"/>
<path d="M9.98552 31.5509L2.1232 28.5431C1.39616 28.2649 0.800504 27.7233 0.454753 27.0258C0.303006 26.7197 0.202942 26.3907 0.158614 26.0519L0 24.8398L0 24.1768L0 22.9392L0.0589506 22.044C0.0797609 21.728 0.128118 21.4144 0.203472 21.1068C0.30804 20.6799 0.463934 20.2672 0.667746 19.8779L0.938421 19.3607C1.15329 18.9502 1.43765 18.5801 1.77888 18.2666C2.38293 17.7118 3.14252 17.3555 3.95531 17.2456L7.93985 16.7072L12.5791 16.0802C12.9735 16.027 13.3729 16.0226 13.7684 16.0673L13.8006 16.071C14.1628 16.1119 14.5188 16.1961 14.8609 16.3218L14.9792 16.3653C15.2775 16.4749 15.56 16.6234 15.8194 16.8069C16.0988 17.0046 16.3486 17.2411 16.5615 17.5091L16.6124 17.5733C16.7852 17.7909 16.9358 18.0252 17.0621 18.2727L17.1375 18.4205C17.4101 18.9547 17.5989 19.5276 17.6972 20.1192L17.8647 21.1271L17.9228 21.8671C17.9742 22.5221 17.9776 23.1799 17.933 23.8353C17.8875 24.504 17.7921 25.1684 17.6477 25.823L17.3384 27.2245C17.2085 27.8132 17.0115 28.3851 16.7513 28.929L16.6623 29.115C16.5318 29.3878 16.3787 29.6491 16.2046 29.8964L16.0851 30.0662C15.7412 30.5547 15.3017 30.9684 14.7932 31.282C14.496 31.4654 14.1781 31.6128 13.8462 31.7212L13.7345 31.7577C13.2429 31.9182 12.729 32 12.2119 32C11.8611 32 11.5113 31.9624 11.1686 31.8877L10.969 31.8443C10.6343 31.7714 10.3055 31.6733 9.98552 31.5509Z" fill="#007616"/>
<path d="M26.0145 23.5509L33.8768 20.5431C34.6038 20.2649 35.1995 19.7233 35.5452 19.0258C35.697 18.7197 35.7971 18.3907 35.8414 18.0519L36 16.8398V16.1768V14.9392L35.941 14.044C35.9202 13.728 35.8719 13.4144 35.7965 13.1068C35.692 12.6799 35.5361 12.2672 35.3323 11.8779L35.0616 11.3607C34.8467 10.9502 34.5624 10.5801 34.2211 10.2666C33.6171 9.71181 32.8575 9.35548 32.0447 9.24564L28.0602 8.70718L23.4209 8.08025C23.0265 8.02695 22.6271 8.02261 22.2316 8.06731L22.1994 8.07096C21.8372 8.1119 21.4812 8.19613 21.1391 8.32183L21.0208 8.36529C20.7225 8.47488 20.44 8.62336 20.1806 8.8069C19.9012 9.00461 19.6514 9.24106 19.4385 9.50914L19.3876 9.57333C19.2148 9.79094 19.0642 10.0252 18.9379 10.2727L18.8625 10.4205C18.5899 10.9547 18.4011 11.5276 18.3028 12.1192L18.1353 13.1271L18.0772 13.8671C18.0258 14.5221 18.0224 15.1799 18.067 15.8353C18.1125 16.504 18.2079 17.1684 18.3523 17.823L18.6616 19.2245C18.7915 19.8132 18.9885 20.3851 19.2487 20.929L19.3377 21.115C19.4682 21.3878 19.6213 21.6491 19.7954 21.8964L19.9149 22.0662C20.2588 22.5547 20.6983 22.9684 21.2068 23.282C21.504 23.4654 21.8219 23.6128 22.1538 23.7212L22.2655 23.7577C22.7571 23.9182 23.271 24 23.7881 24C24.1389 24 24.4887 23.9624 24.8314 23.8877L25.031 23.8443C25.3657 23.7714 25.6945 23.6733 26.0145 23.5509Z" fill="#FFD330"/>
<path d="M8.01448 47.5509L15.8768 44.5431C16.6038 44.2649 17.1995 43.7233 17.5452 43.0258C17.697 42.7197 17.7971 42.3907 17.8414 42.0519L18 40.8398V40.1768V38.9392L17.941 38.044C17.9202 37.728 17.8719 37.4144 17.7965 37.1068C17.692 36.6799 17.5361 36.2672 17.3323 35.8779L17.0616 35.3607C16.8467 34.9502 16.5624 34.5801 16.2211 34.2666C15.6171 33.7118 14.8575 33.3555 14.0447 33.2456L10.0602 32.7072L5.4209 32.0802C5.02652 32.027 4.62707 32.0226 4.23163 32.0673L4.19939 32.071C3.83719 32.1119 3.48121 32.1961 3.13907 32.3218L3.02078 32.3653C2.72252 32.4749 2.44003 32.6234 2.18065 32.8069C1.90124 33.0046 1.65137 33.2411 1.43855 33.5091L1.38758 33.5733C1.21484 33.7909 1.0642 34.0252 0.937906 34.2727L0.862469 34.4205C0.589867 34.9547 0.4011 35.5276 0.302805 36.1192L0.135338 37.1271L0.0772324 37.8671C0.0258121 38.5221 0.0223885 39.1799 0.0669861 39.8353C0.11249 40.504 0.207865 41.1684 0.352314 41.823L0.66161 43.2245C0.791538 43.8132 0.988533 44.3851 1.24874 44.929L1.33774 45.115C1.46824 45.3878 1.62132 45.6491 1.79536 45.8964L1.91487 46.0662C2.25877 46.5547 2.69828 46.9684 3.20677 47.282C3.50396 47.4654 3.82186 47.6128 4.1538 47.7212L4.26553 47.7577C4.7571 47.9182 5.27096 48 5.78808 48C6.13887 48 6.48866 47.9624 6.83142 47.8877L7.031 47.8443C7.36574 47.7714 7.69451 47.6733 8.01448 47.5509Z" fill="#007616"/>
<path d="M27.9855 39.5509L20.1232 36.5431C19.3962 36.2649 18.8005 35.7233 18.4548 35.0258C18.303 34.7197 18.2029 34.3907 18.1586 34.0519L18 32.8398V32.1768V30.9392L18.059 30.044C18.0798 29.728 18.1281 29.4144 18.2035 29.1068C18.308 28.6799 18.4639 28.2672 18.6677 27.8779L18.9384 27.3607C19.1533 26.9502 19.4376 26.5801 19.7789 26.2666C20.3829 25.7118 21.1425 25.3555 21.9553 25.2456L25.9398 24.7072L30.5791 24.0802C30.9735 24.027 31.3729 24.0226 31.7684 24.0673L31.8006 24.071C32.1628 24.1119 32.5188 24.1961 32.8609 24.3218L32.9792 24.3653C33.2775 24.4749 33.56 24.6234 33.8193 24.8069C34.0988 25.0046 34.3486 25.2411 34.5615 25.5091L34.6124 25.5733C34.7852 25.7909 34.9358 26.0252 35.0621 26.2727L35.1375 26.4205C35.4101 26.9547 35.5989 27.5276 35.6972 28.1192L35.8647 29.1271L35.9228 29.8671C35.9742 30.5221 35.9776 31.1799 35.933 31.8353C35.8875 32.504 35.7921 33.1684 35.6477 33.823L35.3384 35.2245C35.2085 35.8132 35.0115 36.3851 34.7513 36.929L34.6623 37.115C34.5318 37.3878 34.3787 37.6491 34.2046 37.8964L34.0851 38.0662C33.7412 38.5547 33.3017 38.9684 32.7932 39.282C32.496 39.4654 32.1781 39.6128 31.8462 39.7212L31.7345 39.7577C31.2429 39.9182 30.729 40 30.2119 40C29.8611 40 29.5113 39.9624 29.1686 39.8877L28.969 39.8443C28.6343 39.7714 28.3055 39.6733 27.9855 39.5509Z" fill="#FFD330"/>
<path d="M8.01448 0.449072L15.8768 3.45693C16.6038 3.73507 17.1995 4.27674 17.5452 4.97416C17.697 5.28025 17.7971 5.60934 17.8414 5.9481L18 7.16022V7.8232V9.06077L17.941 9.956C17.9202 10.272 17.8719 10.5856 17.7965 10.8932C17.692 11.3201 17.5361 11.7328 17.3323 12.1221L17.0616 12.6393C16.8467 13.0498 16.5624 13.4199 16.2211 13.7334C15.6171 14.2882 14.8575 14.6445 14.0447 14.7544L10.0602 15.2928L5.4209 15.9198C5.02652 15.973 4.62707 15.9774 4.23163 15.9327L4.19939 15.929C3.83719 15.8881 3.48121 15.8039 3.13907 15.6782L3.02078 15.6347C2.72252 15.5251 2.44003 15.3766 2.18065 15.1931C1.90124 14.9954 1.65137 14.7589 1.43855 14.4909L1.38758 14.4267C1.21484 14.2091 1.0642 13.9748 0.937906 13.7273L0.862469 13.5795C0.589867 13.0453 0.4011 12.4724 0.302805 11.8808L0.135338 10.8729L0.0772324 10.1329C0.0258121 9.47795 0.0223885 8.82015 0.0669861 8.16474C0.11249 7.49599 0.207865 6.83158 0.352314 6.17704L0.66161 4.77552C0.791538 4.18678 0.988533 3.61488 1.24874 3.07102L1.33774 2.885C1.46824 2.61223 1.62132 2.35086 1.79536 2.1036L1.91487 1.93383C2.25877 1.44528 2.69828 1.03163 3.20677 0.717959C3.50396 0.534627 3.82186 0.387212 4.1538 0.278807L4.26553 0.24232C4.7571 0.0817836 5.27096 0 5.78808 0C6.13887 0 6.48866 0.0376368 6.83142 0.112264L7.031 0.155715C7.36574 0.228596 7.69451 0.326661 8.01448 0.449072Z" fill="#007616"/>
</g>
<defs>
<filter id="filter0_i_135_295" x="0" y="0" width="90" height="52" filterUnits="userSpaceOnUse" color-interpolation-filters="sRGB">
<feFlood flood-opacity="0" result="BackgroundImageFix"/>
<feBlend mode="normal" in="SourceGraphic" in2="BackgroundImageFix" result="shape"/>
<feColorMatrix in="SourceAlpha" type="matrix" values="0 0 0 0 0 0 0 0 0 0 0 0 0 0 0 0 0 0 127 0" result="hardAlpha"/>
<feOffset dy="4"/>
<feGaussianBlur stdDeviation="2"/>
<feComposite in2="hardAlpha" operator="arithmetic" k2="-1" k3="1"/>
<feColorMatrix type="matrix" values="0 0 0 0 0 0 0 0 0 0 0 0 0 0 0 0 0 0 0.25 0"/>
<feBlend mode="normal" in2="shape" result="effect1_innerShadow_135_295"/>
</filter>
</defs>
</svg>
