<svg width="72" height="80" viewBox="0 0 72 80" fill="none" xmlns="http://www.w3.org/2000/svg">
<path d="M1.99588 35.6199L15.3641 70.5636C16.6003 73.7948 19.0077 76.4422 22.1074 77.9789C23.4678 78.6533 24.9304 79.098 26.436 79.2951L31.8232 80H34.7698H40.2701L44.2489 79.738C45.6534 79.6455 47.0472 79.4306 48.4144 79.0957C50.3116 78.6309 52.1456 77.9381 53.8762 77.0322L56.1745 75.8292C57.9989 74.8743 59.6442 73.6105 61.0372 72.0939C63.5031 69.4092 65.0868 66.0332 65.5749 62.4208L67.9681 44.7118L70.7545 24.0929C70.9913 22.3401 71.0106 20.5648 70.812 18.8073L70.7957 18.6639C70.6138 17.0542 70.2394 15.4721 69.6808 13.9514L69.4876 13.4257C69.0006 12.1001 68.3406 10.8446 67.5249 9.69177C66.6462 8.44994 65.5953 7.3394 64.4038 6.39353L64.1185 6.16704C63.1514 5.39928 62.1102 4.72977 61.0103 4.16846L60.3533 3.83319C57.9793 2.62162 55.4329 1.78267 52.8036 1.34579L48.3241 0.601501L44.1695 0.275307C41.835 0.0920105 39.4901 0.0798035 37.1538 0.238777L35.404 0.357849C33.0201 0.520058 30.6517 0.860031 28.3185 1.37494L21.2245 2.94048C18.6079 3.51794 16.0661 4.39348 13.649 5.54995L12.8222 5.94551C11.6099 6.52551 10.4483 7.20584 9.34935 7.97939L8.59481 8.51052C6.42346 10.039 4.58504 11.9923 3.19093 14.2523C2.37612 15.5732 1.72094 16.9861 1.23914 18.4613L1.07698 18.9579C0.363483 21.1426 0 23.4265 0 25.7248C0 27.2839 0.167274 28.8385 0.498951 30.3619L0.692067 31.2489C1.01598 32.7366 1.45183 34.1978 1.99588 35.6199Z" fill="#876E19"/>
</svg>
