<svg width="83" height="94" viewBox="0 0 83 94" fill="none" xmlns="http://www.w3.org/2000/svg">
<path d="M80.6704 51.9874L65.0672 11.2016C63.6243 7.4301 60.8144 4.34011 57.1965 2.54653C55.6087 1.75934 53.9015 1.24026 52.1442 1.01031L45.8564 0.1875L42.4171 0.1875L35.9972 0.1875L31.3533 0.493306C29.7139 0.601259 28.0871 0.852113 26.4913 1.24301C24.2769 1.78546 22.1363 2.59416 20.1164 3.65143L17.4338 5.05556C15.3044 6.17018 13.3841 7.64529 11.7582 9.41545C8.88004 12.5489 7.03154 16.4893 6.46175 20.7057L3.6685 41.3755L0.41629 65.4416C0.139824 67.4874 0.117287 69.5596 0.349182 71.6109L0.368088 71.7782C0.58049 73.6571 1.01742 75.5037 1.6695 77.2786L1.89497 77.8922C2.46342 79.4394 3.23368 80.9048 4.18578 82.2504C5.21141 83.6998 6.43799 84.996 7.82867 86.1L8.16167 86.3644C9.29049 87.2605 10.5058 88.042 11.7896 88.6971L12.5563 89.0884C15.3273 90.5026 18.2994 91.4818 21.3683 91.9917L26.5967 92.8604L32.0322 93.2872C34.3667 93.4705 36.7115 93.4827 39.0479 93.3237L42.2756 93.1041C44.6594 92.9419 47.0278 92.6019 49.3611 92.087L58.227 90.1304C61.2811 89.4564 64.2478 88.4345 67.0691 87.0847L68.0341 86.623C69.449 85.946 70.8049 85.1519 72.0876 84.2491L72.9682 83.6291C75.5026 81.8451 77.6484 79.5652 79.2756 76.9274C80.2266 75.3857 80.9913 73.7366 81.5537 72.0146L81.743 71.4351C82.5757 68.8851 83 66.2194 83 63.5369C83 61.7171 82.8048 59.9026 82.4176 58.1245L82.1922 57.0892C81.8142 55.3527 81.3054 53.6472 80.6704 51.9874Z" fill="#876E19"/>
</svg>
