<svg width="83" height="94" viewBox="0 0 83 94" fill="none" xmlns="http://www.w3.org/2000/svg">
<path d="M2.32956 52.1749L17.9328 11.3891C19.3757 7.6176 22.1856 4.52761 25.8035 2.73403C27.3913 1.94684 29.0985 1.42776 30.8558 1.19781L37.1436 0.375L40.5829 0.375L47.0028 0.375L51.6467 0.680806C53.2861 0.788759 54.9129 1.03961 56.5087 1.43051C58.7231 1.97296 60.8637 2.78166 62.8836 3.83893L65.5662 5.24306C67.6956 6.35768 69.6159 7.83279 71.2418 9.60295C74.12 12.7364 75.9685 16.6768 76.5382 20.8932L79.3315 41.563L82.5837 65.6291C82.8602 67.6749 82.8827 69.7471 82.6508 71.7984L82.6319 71.9657C82.4195 73.8446 81.9826 75.6912 81.3305 77.4661L81.105 78.0797C80.5366 79.6269 79.7663 81.0923 78.8142 82.4379C77.7886 83.8873 76.562 85.1835 75.1713 86.2875L74.8383 86.5519C73.7095 87.448 72.4942 88.2295 71.2104 88.8846L70.4437 89.2759C67.6727 90.6901 64.7006 91.6693 61.6317 92.1792L56.4033 93.0479L50.9678 93.4747C48.6333 93.658 46.2885 93.6702 43.9521 93.5112L40.7244 93.2916C38.3406 93.1294 35.9722 92.7894 33.6389 92.2745L24.773 90.3179C21.7189 89.6439 18.7522 88.622 15.9309 87.2722L14.9659 86.8105C13.551 86.1335 12.1951 85.3394 10.9124 84.4366L10.0318 83.8166C7.49739 82.0326 5.3516 79.7527 3.72441 77.1149C2.77338 75.5732 2.00866 73.9241 1.44631 72.2021L1.25703 71.6226C0.424252 69.0726 0 66.4069 0 63.7244C0 61.9046 0.195241 60.0901 0.58237 58.312L0.807772 57.2767C1.18584 55.5402 1.69456 53.8347 2.32956 52.1749Z" fill="#FFD330"/>
</svg>
