<svg width="115" height="102" viewBox="0 0 115 102" fill="none" xmlns="http://www.w3.org/2000/svg">
<path d="M63.6577 99.1372L13.5354 79.9621C8.90054 78.1889 5.10321 74.7358 2.89905 70.2897C1.93166 68.3384 1.29375 66.2404 1.01116 64.0809L0 56.3536L0 52.1271L0 44.2376L0.37581 38.5305C0.508475 36.5159 0.816754 34.5166 1.29713 32.5556C1.96376 29.8343 2.95758 27.2037 4.25688 24.7214L5.98243 21.4247C7.35221 18.8078 9.16499 16.4479 11.3404 14.4498C15.1912 10.9128 20.0336 8.64117 25.2151 7.94095L50.6165 4.50829L80.1918 0.511581C82.7059 0.171829 85.2524 0.144135 87.7733 0.429115L87.9789 0.452354C90.2879 0.713379 92.5573 1.25031 94.7384 2.05167L95.4926 2.32875C97.394 3.02734 99.1948 3.97392 100.848 5.14397C102.63 6.40438 104.223 7.91174 105.579 9.62077L105.904 10.03C107.005 11.4172 107.966 12.9107 108.771 14.4884L109.252 15.4307C110.99 18.836 112.193 22.4885 112.82 26.2598L113.887 32.6851L114.475 40.1675C114.658 42.5021 114.67 44.8469 114.511 47.1832L114.131 52.7728C113.969 55.1567 113.629 57.5251 113.114 59.8583L110.476 71.8129C109.685 75.3954 108.486 78.8755 106.903 82.185L106.222 83.6082C105.39 85.347 104.414 87.0133 103.305 88.5895L102.543 89.6718C100.35 92.7863 97.5485 95.4233 94.3069 97.423C92.4122 98.5918 90.3856 99.5315 88.2695 100.223L87.5573 100.455C84.4235 101.479 81.1476 102 77.851 102C75.6147 102 73.3848 101.76 71.1997 101.284L69.9274 101.007C67.7934 100.543 65.6975 99.9175 63.6577 99.1372Z" fill="#007616"/>
</svg>
