<svg width="83" height="94" viewBox="0 0 83 94" fill="none" xmlns="http://www.w3.org/2000/svg">
<path d="M2.32956 51.7999L17.9328 11.0141C19.3757 7.2426 22.1856 4.15261 25.8035 2.35903C27.3913 1.57184 29.0985 1.05276 30.8558 0.822808L37.1436 0L40.5829 0L47.0028 0L51.6467 0.305806C53.2861 0.413759 54.9129 0.664613 56.5087 1.05551C58.7231 1.59796 60.8637 2.40666 62.8836 3.46393L65.5662 4.86806C67.6956 5.98268 69.6159 7.45779 71.2418 9.22795C74.12 12.3614 75.9685 16.3018 76.5382 20.5182L79.3315 41.188L82.5837 65.2541C82.8602 67.2999 82.8827 69.3721 82.6508 71.4234L82.6319 71.5907C82.4195 73.4696 81.9826 75.3162 81.3305 77.0911L81.105 77.7047C80.5366 79.2519 79.7663 80.7173 78.8142 82.0629C77.7886 83.5123 76.562 84.8085 75.1713 85.9125L74.8383 86.1769C73.7095 87.073 72.4942 87.8545 71.2104 88.5096L70.4437 88.9009C67.6727 90.3151 64.7006 91.2943 61.6317 91.8042L56.4033 92.6729L50.9678 93.0997C48.6333 93.283 46.2885 93.2952 43.9521 93.1362L40.7244 92.9166C38.3406 92.7544 35.9722 92.4144 33.6389 91.8995L24.773 89.9429C21.7189 89.2689 18.7522 88.247 15.9309 86.8972L14.9659 86.4355C13.551 85.7585 12.1951 84.9644 10.9124 84.0616L10.0318 83.4416C7.49739 81.6576 5.3516 79.3777 3.72441 76.7399C2.77338 75.1982 2.00866 73.5491 1.44631 71.8271L1.25703 71.2476C0.424252 68.6976 0 66.0319 0 63.3494C0 61.5296 0.195241 59.7151 0.58237 57.937L0.807772 56.9017C1.18584 55.1652 1.69456 53.4597 2.32956 51.7999Z" fill="#D9B229"/>
</svg>
