<svg width="94" height="16" viewBox="0 0 94 16" fill="none" xmlns="http://www.w3.org/2000/svg">
<path d="M85.9855 0.449072L78.1232 3.45693C77.3962 3.73507 76.8005 4.27674 76.4548 4.97416C76.303 5.28025 76.2029 5.60934 76.1586 5.9481L76 7.16022V7.8232V9.06077L76.059 9.956C76.0798 10.272 76.1281 10.5856 76.2035 10.8932C76.308 11.3201 76.4639 11.7328 76.6677 12.1221L76.9384 12.6393C77.1533 13.0498 77.4376 13.4199 77.7789 13.7334C78.3829 14.2882 79.1425 14.6445 79.9553 14.7544L83.9398 15.2928L88.5791 15.9198C88.9735 15.973 89.3729 15.9774 89.7684 15.9327L89.8006 15.929C90.1628 15.8881 90.5188 15.8039 90.8609 15.6782L90.9792 15.6347C91.2775 15.5251 91.56 15.3766 91.8194 15.1931C92.0988 14.9954 92.3486 14.7589 92.5615 14.4909L92.6124 14.4267C92.7852 14.2091 92.9358 13.9748 93.0621 13.7273L93.1375 13.5795C93.4101 13.0453 93.5989 12.4724 93.6972 11.8808L93.8647 10.8729L93.9228 10.1329C93.9742 9.47795 93.9776 8.82015 93.933 8.16474C93.8875 7.49599 93.7921 6.83158 93.6477 6.17704L93.3384 4.77552C93.2085 4.18678 93.0115 3.61488 92.7513 3.07102L92.6623 2.885C92.5318 2.61223 92.3787 2.35086 92.2046 2.1036L92.0851 1.93383C91.7412 1.44528 91.3017 1.03163 90.7932 0.717959C90.496 0.534627 90.1781 0.387212 89.8462 0.278807L89.7345 0.24232C89.2429 0.0817836 88.729 0 88.2119 0C87.8611 0 87.5113 0.0376368 87.1686 0.112264L86.969 0.155715C86.6343 0.228596 86.3055 0.326661 85.9855 0.449072Z" fill="#FFD330"/>
<path d="M8.01448 0.449072L15.8768 3.45693C16.6038 3.73507 17.1995 4.27674 17.5452 4.97416C17.697 5.28025 17.7971 5.60934 17.8414 5.9481L18 7.16022V7.8232V9.06077L17.941 9.956C17.9202 10.272 17.8719 10.5856 17.7965 10.8932C17.692 11.3201 17.5361 11.7328 17.3323 12.1221L17.0616 12.6393C16.8467 13.0498 16.5624 13.4199 16.2211 13.7334C15.6171 14.2882 14.8575 14.6445 14.0447 14.7544L10.0602 15.2928L5.4209 15.9198C5.02652 15.973 4.62707 15.9774 4.23163 15.9327L4.19939 15.929C3.83719 15.8881 3.48121 15.8039 3.13907 15.6782L3.02078 15.6347C2.72252 15.5251 2.44003 15.3766 2.18065 15.1931C1.90124 14.9954 1.65137 14.7589 1.43855 14.4909L1.38758 14.4267C1.21484 14.2091 1.0642 13.9748 0.937906 13.7273L0.862469 13.5795C0.589867 13.0453 0.4011 12.4724 0.302805 11.8808L0.135338 10.8729L0.0772324 10.1329C0.0258121 9.47795 0.0223885 8.82015 0.0669861 8.16474C0.11249 7.49599 0.207865 6.83158 0.352314 6.17704L0.66161 4.77552C0.791538 4.18678 0.988533 3.61488 1.24874 3.07102L1.33774 2.885C1.46824 2.61223 1.62132 2.35086 1.79536 2.1036L1.91487 1.93383C2.25877 1.44528 2.69828 1.03163 3.20677 0.717959C3.50396 0.534627 3.82186 0.387212 4.1538 0.278807L4.26553 0.24232C4.7571 0.0817836 5.27096 0 5.78808 0C6.13887 0 6.48866 0.0376368 6.83142 0.112264L7.031 0.155715C7.36574 0.228596 7.69451 0.326661 8.01448 0.449072Z" fill="#FFD330"/>
<path d="M8 15V3H86.8321L88 15H8Z" fill="#FFD330"/>
</svg>
