<svg width="48" height="18" viewBox="0 0 48 18" fill="none" xmlns="http://www.w3.org/2000/svg">
<path d="M0.449072 8.01448L3.45693 15.8768C3.73507 16.6038 4.27674 17.1995 4.97416 17.5452C5.28025 17.697 5.60934 17.7971 5.9481 17.8414L7.16022 18H7.8232H9.06077L9.956 17.941C10.272 17.9202 10.5856 17.8719 10.8932 17.7965C11.3201 17.692 11.7328 17.5361 12.1221 17.3323L12.6393 17.0616C13.0498 16.8467 13.4199 16.5624 13.7334 16.2211C14.2882 15.6171 14.6445 14.8575 14.7544 14.0447L15.2928 10.0602L15.9198 5.4209C15.973 5.02652 15.9774 4.62707 15.9327 4.23163L15.929 4.19939C15.8881 3.83719 15.8039 3.48121 15.6782 3.13907L15.6347 3.02078C15.5251 2.72252 15.3766 2.44003 15.1931 2.18065C14.9954 1.90124 14.7589 1.65137 14.4909 1.43855L14.4267 1.38758C14.2091 1.21484 13.9748 1.0642 13.7273 0.937906L13.5795 0.862469C13.0453 0.589867 12.4724 0.4011 11.8808 0.302805L10.8729 0.135338L10.1329 0.0772324C9.47795 0.0258121 8.82015 0.0223885 8.16474 0.0669861C7.49599 0.11249 6.83158 0.207865 6.17704 0.352314L4.77552 0.66161C4.18678 0.791538 3.61488 0.988533 3.07102 1.24874L2.885 1.33774C2.61223 1.46824 2.35086 1.62132 2.1036 1.79536L1.93383 1.91487C1.44528 2.25877 1.03163 2.69828 0.717959 3.20677C0.534627 3.50396 0.387212 3.82186 0.278807 4.1538L0.24232 4.26553C0.0817836 4.7571 0 5.27096 0 5.78808C0 6.13887 0.0376368 6.48866 0.112264 6.83142L0.155715 7.031C0.228596 7.36574 0.326661 7.69451 0.449072 8.01448Z" fill="#007616"/>
<path d="M7.03906 8.81055C7.32422 8.7832 7.58594 8.72461 7.82422 8.63477C8.0625 8.54102 8.26562 8.42383 8.43359 8.2832C8.60547 8.13867 8.73828 7.97266 8.83203 7.78516C8.92578 7.59375 8.97266 7.38477 8.97266 7.1582C8.97266 7.01367 8.94531 6.87891 8.89062 6.75391C8.83594 6.625 8.75781 6.51367 8.65625 6.41992C8.55469 6.32617 8.43359 6.25195 8.29297 6.19727C8.15234 6.14258 7.99805 6.11523 7.83008 6.11523C7.70508 6.11523 7.57227 6.14258 7.43164 6.19727C7.29492 6.24805 7.1582 6.31836 7.02148 6.4082C6.88477 6.49805 6.75586 6.60352 6.63477 6.72461C6.51367 6.8457 6.41211 6.97461 6.33008 7.11133L5.80273 6.87109C5.89648 6.61328 6.01758 6.37305 6.16602 6.15039C6.31836 5.92773 6.49609 5.73242 6.69922 5.56445C6.90625 5.39648 7.13867 5.26562 7.39648 5.17188C7.6543 5.07422 7.94141 5.02539 8.25781 5.02539C8.5625 5.02539 8.84766 5.07031 9.11328 5.16016C9.37891 5.24609 9.60938 5.36719 9.80469 5.52344C10.0039 5.67578 10.1602 5.85742 10.2734 6.06836C10.3867 6.2793 10.4434 6.50977 10.4434 6.75977C10.4434 6.87305 10.418 7 10.3672 7.14062C10.3164 7.27734 10.2441 7.41797 10.1504 7.5625C10.0605 7.70312 9.95312 7.84375 9.82812 7.98438C9.70312 8.12109 9.56641 8.24609 9.41797 8.35938H9.44141C9.64453 8.44922 9.83203 8.56836 10.0039 8.7168C10.1797 8.86133 10.3301 9.02344 10.4551 9.20312C10.584 9.38281 10.6836 9.57422 10.7539 9.77734C10.8281 9.97656 10.8652 10.1777 10.8652 10.3809C10.8652 10.8496 10.7715 11.2598 10.584 11.6113C10.4004 11.959 10.1465 12.25 9.82227 12.4844C9.50195 12.7148 9.12109 12.8867 8.67969 13C8.23828 13.1172 7.76367 13.1758 7.25586 13.1758C6.77148 13.1758 6.39258 13.1055 6.11914 12.9648C5.84961 12.8242 5.71484 12.6387 5.71484 12.4082C5.71484 12.2988 5.74219 12.209 5.79688 12.1387C5.85156 12.0645 5.91797 12.0059 5.99609 11.9629C6.07812 11.916 6.16602 11.8828 6.25977 11.8633C6.35742 11.8438 6.44727 11.834 6.5293 11.834C6.72852 11.834 6.9082 11.8711 7.06836 11.9453C7.22852 12.0156 7.375 12.0898 7.50781 12.168C7.60156 12.2227 7.69531 12.2715 7.78906 12.3145C7.88672 12.3574 7.99219 12.3789 8.10547 12.3789C8.33594 12.3789 8.53906 12.3398 8.71484 12.2617C8.89453 12.1836 9.04297 12.0801 9.16016 11.9512C9.28125 11.8184 9.37305 11.668 9.43555 11.5C9.49805 11.3281 9.5293 11.1504 9.5293 10.9668C9.5293 10.7285 9.47852 10.5078 9.37695 10.3047C9.2793 10.1016 9.12695 9.92578 8.91992 9.77734C8.7168 9.62891 8.45898 9.51172 8.14648 9.42578C7.83398 9.33984 7.46484 9.29688 7.03906 9.29688V8.81055Z" fill="#2D2D2D"/>
<path d="M16.4491 9.98552L19.4569 2.1232C19.7351 1.39616 20.2767 0.800504 20.9742 0.454753C21.2803 0.303006 21.6093 0.202942 21.9481 0.158614L23.1602 0L23.8232 0L25.0608 0L25.956 0.0589506C26.272 0.0797609 26.5856 0.128118 26.8932 0.203472C27.3201 0.30804 27.7328 0.463934 28.1221 0.667746L28.6393 0.938421C29.0498 1.15329 29.4199 1.43765 29.7334 1.77888C30.2882 2.38293 30.6445 3.14252 30.7544 3.95531L31.2928 7.93985L31.9198 12.5791C31.973 12.9735 31.9774 13.3729 31.9327 13.7684L31.929 13.8006C31.8881 14.1628 31.8039 14.5188 31.6782 14.8609L31.6347 14.9792C31.5251 15.2775 31.3766 15.56 31.1931 15.8194C30.9954 16.0988 30.7589 16.3486 30.4909 16.5615L30.4267 16.6124C30.2091 16.7852 29.9748 16.9358 29.7273 17.0621L29.5795 17.1375C29.0453 17.4101 28.4724 17.5989 27.8808 17.6972L26.8729 17.8647L26.1329 17.9228C25.4779 17.9742 24.8201 17.9776 24.1647 17.933C23.496 17.8875 22.8316 17.7921 22.177 17.6477L20.7755 17.3384C20.1868 17.2085 19.6149 17.0115 19.071 16.7513L18.885 16.6623C18.6122 16.5318 18.3509 16.3787 18.1036 16.2046L17.9338 16.0851C17.4453 15.7412 17.0316 15.3017 16.718 14.7932C16.5346 14.496 16.3872 14.1781 16.2788 13.8462L16.2423 13.7345C16.0818 13.2429 16 12.729 16 12.2119C16 11.8611 16.0376 11.5113 16.1123 11.1686L16.1557 10.969C16.2286 10.6343 16.3267 10.3055 16.4491 9.98552Z" fill="#FFD330"/>
<path d="M26.9941 5.48828C26.584 5.52734 26.1914 5.625 25.8164 5.78125C25.4453 5.93359 25.1035 6.13086 24.791 6.37305C24.4824 6.61523 24.2109 6.89453 23.9766 7.21094C23.7461 7.52734 23.5664 7.86328 23.4375 8.21875C23.5664 8.17969 23.6895 8.14648 23.8066 8.11914C23.9238 8.08789 24.0391 8.0625 24.1523 8.04297C24.2656 8.01953 24.3809 8.00195 24.498 7.99023C24.6152 7.97852 24.7363 7.97266 24.8613 7.97266C25.1855 7.97266 25.4922 8.03516 25.7812 8.16016C26.0703 8.28516 26.3223 8.45703 26.5371 8.67578C26.7559 8.89062 26.9277 9.14453 27.0527 9.4375C27.1816 9.72656 27.2461 10.0371 27.2461 10.3691C27.2461 10.7559 27.1699 11.1191 27.0176 11.459C26.8691 11.7988 26.6641 12.0977 26.4023 12.3555C26.1445 12.6094 25.8398 12.8105 25.4883 12.959C25.1406 13.1035 24.7676 13.1758 24.3691 13.1758C23.9473 13.1758 23.5586 13.0938 23.2031 12.9297C22.8516 12.7656 22.5469 12.543 22.2891 12.2617C22.0352 11.9766 21.8379 11.6426 21.6973 11.2598C21.5566 10.877 21.4863 10.4688 21.4863 10.0352C21.4863 9.58594 21.5449 9.15039 21.6621 8.72852C21.7793 8.30273 21.9492 7.9043 22.1719 7.5332C22.3984 7.16211 22.6719 6.82422 22.9922 6.51953C23.3125 6.21094 23.6758 5.94727 24.082 5.72852C24.4922 5.50586 24.9414 5.33398 25.4297 5.21289C25.918 5.08789 26.4395 5.02539 26.9941 5.02539V5.48828ZM24.2695 8.74609C24.1367 8.74609 23.9805 8.7793 23.8008 8.8457C23.6211 8.91211 23.4355 8.99219 23.2441 9.08594C23.2168 9.25391 23.1973 9.42383 23.1855 9.5957C23.1738 9.76367 23.168 9.92578 23.168 10.082C23.168 10.4023 23.1934 10.709 23.2441 11.002C23.2988 11.2949 23.3809 11.5547 23.4902 11.7812C23.6035 12.0039 23.7441 12.1816 23.9121 12.3145C24.084 12.4473 24.2871 12.5137 24.5215 12.5137C24.6777 12.5137 24.8242 12.4707 24.9609 12.3848C25.0977 12.2988 25.2168 12.1816 25.3184 12.0332C25.4238 11.8848 25.5059 11.7129 25.5645 11.5176C25.627 11.3184 25.6582 11.1055 25.6582 10.8789C25.6582 10.5859 25.6211 10.3105 25.5469 10.0527C25.4766 9.79102 25.3789 9.56445 25.2539 9.37305C25.1289 9.17773 24.9805 9.02539 24.8086 8.91602C24.6406 8.80273 24.4609 8.74609 24.2695 8.74609Z" fill="#2D2D2D"/>
<path d="M32.4491 8.01448L35.4569 15.8768C35.7351 16.6038 36.2767 17.1995 36.9742 17.5452C37.2803 17.697 37.6093 17.7971 37.9481 17.8414L39.1602 18H39.8232H41.0608L41.956 17.941C42.272 17.9202 42.5856 17.8719 42.8932 17.7965C43.3201 17.692 43.7328 17.5361 44.1221 17.3323L44.6393 17.0616C45.0498 16.8467 45.4199 16.5624 45.7334 16.2211C46.2882 15.6171 46.6445 14.8575 46.7544 14.0447L47.2928 10.0602L47.9198 5.4209C47.973 5.02652 47.9774 4.62707 47.9327 4.23163L47.929 4.19939C47.8881 3.83719 47.8039 3.48121 47.6782 3.13907L47.6347 3.02077C47.5251 2.72252 47.3766 2.44003 47.1931 2.18065C46.9954 1.90124 46.7589 1.65137 46.4909 1.43854L46.4267 1.38758C46.2091 1.21484 45.9748 1.0642 45.7273 0.937908L45.5795 0.862473C45.0453 0.589867 44.4724 0.4011 43.8808 0.302803L42.8729 0.135338L42.1329 0.0772324C41.4779 0.0258141 40.8201 0.0223885 40.1647 0.0669861C39.496 0.112492 38.8316 0.207865 38.177 0.352312L36.7755 0.66161C36.1868 0.791536 35.6149 0.988533 35.071 1.24874L34.885 1.33774C34.6122 1.46824 34.3509 1.62132 34.1036 1.79536L33.9338 1.91487C33.4453 2.25877 33.0316 2.69828 32.718 3.20677C32.5346 3.50396 32.3872 3.82187 32.2788 4.1538L32.2423 4.26553C32.0818 4.7571 32 5.27096 32 5.78808C32 6.13887 32.0376 6.48866 32.1123 6.83142L32.1557 7.031C32.2286 7.36574 32.3267 7.69451 32.4491 8.01448Z" fill="#876E19"/>
<path d="M42.3672 6.42578H39.9297C39.8633 6.55078 39.7969 6.67383 39.7305 6.79492C39.6641 6.91602 39.5977 7.03906 39.5312 7.16406H39.625C40.0508 7.20703 40.459 7.31055 40.8496 7.47461C41.2441 7.63477 41.5918 7.84766 41.8926 8.11328C42.1934 8.37891 42.4336 8.69141 42.6133 9.05078C42.7969 9.41016 42.8887 9.80664 42.8887 10.2402C42.8887 10.6465 42.7969 11.0273 42.6133 11.3828C42.4297 11.7383 42.1777 12.0488 41.8574 12.3145C41.5371 12.5801 41.1602 12.791 40.7266 12.9473C40.2969 13.0996 39.8359 13.1758 39.3438 13.1758C39.1016 13.1758 38.8809 13.1504 38.6816 13.0996C38.4863 13.0527 38.3164 12.9883 38.1719 12.9062C38.0312 12.8242 37.9219 12.7305 37.8438 12.625C37.7656 12.5156 37.7266 12.4023 37.7266 12.2852C37.7266 12.1914 37.7461 12.1113 37.7852 12.0449C37.8281 11.9746 37.8828 11.918 37.9492 11.875C38.0195 11.8281 38.0977 11.793 38.1836 11.7695C38.2734 11.7461 38.3652 11.7344 38.459 11.7344C38.6074 11.7344 38.7441 11.7656 38.8691 11.8281C38.9941 11.8867 39.1172 11.9512 39.2383 12.0215C39.3555 12.0879 39.4766 12.1484 39.6016 12.2031C39.7266 12.2578 39.8809 12.2852 40.0645 12.2852C40.2832 12.2852 40.4883 12.2402 40.6797 12.1504C40.8711 12.0605 41.0371 11.9395 41.1777 11.7871C41.3223 11.6348 41.4355 11.457 41.5176 11.2539C41.5996 11.0469 41.6406 10.8262 41.6406 10.5918C41.6406 10.2637 41.5488 9.9668 41.3652 9.70117C41.1855 9.43555 40.9297 9.20898 40.5977 9.02148C40.2656 8.83398 39.8652 8.68945 39.3965 8.58789C38.9277 8.48633 38.4043 8.43555 37.8262 8.43555L39.5957 5.20117H42.9883L42.3672 6.42578Z" fill="#2D2D2D"/>
</svg>
