<svg width="96" height="35" viewBox="0 0 96 35" fill="none" xmlns="http://www.w3.org/2000/svg">
<path d="M14.029 23.2305V23.7344H10.238V26.5117H12.9802V27.0156H10.238V31H9.1657V23.2305H14.029ZM17.3084 23.2305H19.8865C20.3318 23.2305 20.7224 23.2812 21.0584 23.3828C21.3982 23.4805 21.6795 23.6191 21.9021 23.7988C22.1287 23.9785 22.2986 24.1934 22.4119 24.4434C22.5252 24.6895 22.5818 24.959 22.5818 25.252C22.5818 25.498 22.5369 25.7285 22.447 25.9434C22.3611 26.1543 22.2361 26.3457 22.072 26.5176C21.908 26.6855 21.7107 26.8301 21.4802 26.9512C21.2498 27.0723 20.992 27.166 20.7068 27.2324L23.5369 31H22.2068L19.5056 27.3496H18.3806V31H17.3084V23.2305ZM18.3806 26.957H19.2537C19.5623 26.957 19.8474 26.918 20.1091 26.8398C20.3748 26.7617 20.6033 26.6523 20.7947 26.5117C20.9861 26.3672 21.1345 26.1934 21.24 25.9902C21.3494 25.7871 21.4041 25.5586 21.4041 25.3047C21.4041 25.0703 21.3611 24.8555 21.2752 24.6602C21.1892 24.4648 21.0681 24.2988 20.9119 24.1621C20.7556 24.0215 20.5701 23.9121 20.3552 23.834C20.1404 23.7559 19.9041 23.7168 19.6462 23.7168H18.3806V26.957ZM30.5487 31.1816C29.9627 31.1816 29.4159 31.0742 28.908 30.8594C28.4041 30.6445 27.9647 30.3516 27.5897 29.9805C27.2147 29.6055 26.9198 29.1699 26.7049 28.6738C26.4901 28.1738 26.3827 27.6406 26.3827 27.0742C26.3827 26.5156 26.4901 25.9922 26.7049 25.5039C26.9198 25.0156 27.2147 24.5898 27.5897 24.2266C27.9647 23.8633 28.4041 23.5781 28.908 23.3711C29.4159 23.1602 29.9627 23.0547 30.5487 23.0547C31.1346 23.0547 31.6815 23.1602 32.1893 23.3711C32.6971 23.5781 33.1385 23.8633 33.5135 24.2266C33.8885 24.5898 34.1834 25.0156 34.3983 25.5039C34.6131 25.9922 34.7205 26.5156 34.7205 27.0742C34.7205 27.6406 34.6131 28.1738 34.3983 28.6738C34.1834 29.1699 33.8885 29.6055 33.5135 29.9805C33.1385 30.3516 32.6971 30.6445 32.1893 30.8594C31.6815 31.0742 31.1346 31.1816 30.5487 31.1816ZM30.5487 30.7949C31.0135 30.7949 31.4237 30.7031 31.7791 30.5195C32.1385 30.332 32.4393 30.0723 32.6815 29.7402C32.9237 29.4082 33.1073 29.0156 33.2323 28.5625C33.3573 28.1094 33.4198 27.6133 33.4198 27.0742C33.4198 26.5391 33.3573 26.0488 33.2323 25.6035C33.1073 25.1582 32.9237 24.7754 32.6815 24.4551C32.4393 24.1309 32.1385 23.8809 31.7791 23.7051C31.4237 23.5254 31.0135 23.4355 30.5487 23.4355C30.0799 23.4355 29.6659 23.5254 29.3065 23.7051C28.9471 23.8809 28.6463 24.1309 28.4041 24.4551C28.1659 24.7754 27.9842 25.1582 27.8592 25.6035C27.7381 26.0488 27.6776 26.5391 27.6776 27.0742C27.6776 27.6133 27.7381 28.1094 27.8592 28.5625C27.9842 29.0156 28.1659 29.4082 28.4041 29.7402C28.6463 30.0723 28.9471 30.332 29.3065 30.5195C29.6659 30.7031 30.0799 30.7949 30.5487 30.7949ZM38.5155 23.2305H39.1601L44.3984 29.0664V23.2305H44.9726V31.1582H44.6796L39.1073 24.7656V31H38.5155V23.2305ZM54.9902 23.2305V23.7344H52.1777V31H51.1055V23.7344H48.293V23.2305H54.9902ZM58.422 23.2305H59.4942V31H58.422V23.2305ZM68.9318 23.2305V23.7344H64.8361V26.5117H67.5783V27.0156H64.8361V30.4961H68.9318V31H63.7638V23.2305H68.9318ZM72.6213 23.2305H75.1995C75.6448 23.2305 76.0354 23.2812 76.3713 23.3828C76.7112 23.4805 76.9924 23.6191 77.2151 23.7988C77.4416 23.9785 77.6116 24.1934 77.7248 24.4434C77.8381 24.6895 77.8948 24.959 77.8948 25.252C77.8948 25.498 77.8498 25.7285 77.76 25.9434C77.6741 26.1543 77.5491 26.3457 77.385 26.5176C77.2209 26.6855 77.0237 26.8301 76.7932 26.9512C76.5627 27.0723 76.3049 27.166 76.0198 27.2324L78.8498 31H77.5198L74.8186 27.3496H73.6936V31H72.6213V23.2305ZM73.6936 26.957H74.5666C74.8752 26.957 75.1604 26.918 75.4221 26.8398C75.6877 26.7617 75.9162 26.6523 76.1077 26.5117C76.2991 26.3672 76.4475 26.1934 76.553 25.9902C76.6623 25.7871 76.717 25.5586 76.717 25.3047C76.717 25.0703 76.6741 24.8555 76.5881 24.6602C76.5022 24.4648 76.3811 24.2988 76.2248 24.1621C76.0686 24.0215 75.883 23.9121 75.6682 23.834C75.4534 23.7559 75.217 23.7168 74.9592 23.7168H73.6936V26.957ZM84.4671 30.6895C84.6741 30.6895 84.8773 30.6641 85.0765 30.6133C85.2796 30.5586 85.4593 30.4805 85.6155 30.3789C85.7757 30.2734 85.9046 30.1465 86.0023 29.998C86.0999 29.8457 86.1488 29.6699 86.1488 29.4707C86.1488 29.2559 86.0921 29.0605 85.9788 28.8848C85.8655 28.709 85.7152 28.5469 85.5277 28.3984C85.3402 28.2461 85.1234 28.1035 84.8773 27.9707C84.6351 27.834 84.3851 27.6992 84.1273 27.5664C83.8538 27.4258 83.5823 27.2812 83.3128 27.1328C83.0472 26.9805 82.807 26.8105 82.5921 26.623C82.3812 26.4316 82.2093 26.2168 82.0765 25.9785C81.9476 25.7363 81.8831 25.4551 81.8831 25.1348C81.8831 24.8379 81.9359 24.5625 82.0413 24.3086C82.1468 24.0547 82.3011 23.8359 82.5042 23.6523C82.7113 23.4648 82.9652 23.3184 83.2659 23.2129C83.5667 23.1074 83.9105 23.0547 84.2972 23.0547C84.6448 23.0547 84.9554 23.0938 85.2288 23.1719C85.5062 23.25 85.7484 23.3672 85.9554 23.5234C86.1663 23.6758 86.346 23.8652 86.4945 24.0918C86.6429 24.3184 86.7659 24.5801 86.8636 24.877L86.3948 25.0938C86.3206 24.8672 86.221 24.6602 86.096 24.4727C85.9749 24.2812 85.8265 24.1191 85.6507 23.9863C85.4749 23.8496 85.2698 23.7441 85.0355 23.6699C84.8011 23.5957 84.5355 23.5586 84.2386 23.5586C83.973 23.5586 83.7405 23.5938 83.5413 23.6641C83.3421 23.7305 83.1761 23.8203 83.0433 23.9336C82.9144 24.043 82.8167 24.168 82.7503 24.3086C82.6839 24.4453 82.6507 24.5859 82.6507 24.7305C82.6507 24.9062 82.7073 25.0742 82.8206 25.2344C82.9378 25.3906 83.0902 25.541 83.2777 25.6855C83.4691 25.8301 83.6859 25.9707 83.928 26.1074C84.1702 26.2402 84.4183 26.373 84.6722 26.5059C84.9534 26.6504 85.2347 26.8047 85.5159 26.9688C85.7972 27.1289 86.0511 27.3086 86.2777 27.5078C86.5042 27.7031 86.6878 27.9199 86.8284 28.1582C86.973 28.3926 87.0452 28.6562 87.0452 28.9492C87.0452 29.2578 86.9886 29.5488 86.8753 29.8223C86.762 30.0918 86.5941 30.3281 86.3714 30.5312C86.1488 30.7305 85.8695 30.8887 85.5335 31.0059C85.2015 31.123 84.8148 31.1816 84.3734 31.1816C84.0218 31.1816 83.7054 31.1406 83.4241 31.0586C83.1429 30.9766 82.8929 30.8574 82.6741 30.7012C82.4593 30.541 82.2738 30.3477 82.1175 30.1211C81.9652 29.8906 81.8363 29.6289 81.7308 29.3359L82.2288 29.1309C82.307 29.377 82.4163 29.5957 82.557 29.7871C82.7015 29.9785 82.8695 30.1426 83.0609 30.2793C83.2523 30.4121 83.4671 30.5137 83.7054 30.584C83.9437 30.6543 84.1976 30.6895 84.4671 30.6895Z" fill="#007616"/>
<path d="M8.07586 33.46H87.9241V33.753H8.07586V33.46Z" fill="#007616"/>
<path d="M0.449072 8.01448L3.45693 15.8768C3.73507 16.6038 4.27674 17.1995 4.97416 17.5452C5.28025 17.697 5.60934 17.7971 5.9481 17.8414L7.16022 18H7.8232H9.06077L9.956 17.941C10.272 17.9202 10.5856 17.8719 10.8932 17.7965C11.3201 17.692 11.7328 17.5361 12.1221 17.3323L12.6393 17.0616C13.0498 16.8467 13.4199 16.5624 13.7334 16.2211C14.2882 15.6171 14.6445 14.8575 14.7544 14.0447L15.2928 10.0602L15.9198 5.4209C15.973 5.02652 15.9774 4.62707 15.9327 4.23163L15.929 4.19939C15.8881 3.83719 15.8039 3.48121 15.6782 3.13907L15.6347 3.02078C15.5251 2.72252 15.3766 2.44003 15.1931 2.18065C14.9954 1.90124 14.7589 1.65137 14.4909 1.43855L14.4267 1.38758C14.2091 1.21484 13.9748 1.0642 13.7273 0.937906L13.5795 0.862469C13.0453 0.589867 12.4724 0.4011 11.8808 0.302805L10.8729 0.135338L10.1329 0.0772324C9.47795 0.0258121 8.82015 0.0223885 8.16474 0.0669861C7.49599 0.11249 6.83158 0.207865 6.17704 0.352314L4.77552 0.66161C4.18678 0.791538 3.61488 0.988533 3.07102 1.24874L2.885 1.33774C2.61223 1.46824 2.35086 1.62132 2.1036 1.79536L1.93383 1.91487C1.44528 2.25877 1.03163 2.69828 0.717959 3.20677C0.534627 3.50396 0.387212 3.82186 0.278807 4.1538L0.24232 4.26553C0.0817836 4.7571 0 5.27096 0 5.78808C0 6.13887 0.0376368 6.48866 0.112264 6.83142L0.155715 7.031C0.228596 7.36574 0.326661 7.69451 0.449072 8.01448Z" fill="#007616"/>
<path d="M5.11328 5.05469H8.40625C8.84766 5.05469 9.25 5.10352 9.61328 5.20117C9.98047 5.29883 10.2949 5.4375 10.5566 5.61719C10.8223 5.79297 11.0273 6.00586 11.1719 6.25586C11.3203 6.50586 11.3945 6.7832 11.3945 7.08789C11.3945 7.2832 11.375 7.46289 11.3359 7.62695C11.2969 7.78711 11.2324 7.9375 11.1426 8.07812C11.0566 8.21875 10.9395 8.35352 10.791 8.48242C10.6426 8.60742 10.4609 8.73242 10.2461 8.85742H10.2695C10.4922 8.92773 10.6953 9.02539 10.8789 9.15039C11.0664 9.27148 11.2266 9.41406 11.3594 9.57812C11.4961 9.74219 11.6016 9.92578 11.6758 10.1289C11.7539 10.332 11.793 10.5488 11.793 10.7793C11.793 11.0918 11.7227 11.3828 11.582 11.6523C11.4453 11.9219 11.25 12.1562 10.9961 12.3555C10.7461 12.5547 10.4434 12.7129 10.0879 12.8301C9.73633 12.9434 9.34375 13 8.91016 13H5.11328V5.05469ZM6.83008 8.5H8.23047C8.45703 8.5 8.6582 8.46875 8.83398 8.40625C9.01367 8.33984 9.16406 8.25 9.28516 8.13672C9.40625 8.01953 9.49805 7.88086 9.56055 7.7207C9.62305 7.56055 9.6543 7.38672 9.6543 7.19922C9.6543 6.99219 9.61523 6.80273 9.53711 6.63086C9.45898 6.45898 9.33789 6.3125 9.17383 6.19141C9.01367 6.06641 8.80859 5.9707 8.55859 5.9043C8.3125 5.83398 8.01758 5.79883 7.67383 5.79883H6.83008V8.5ZM6.83008 12.1855H8.02539C8.36133 12.1855 8.65039 12.1523 8.89258 12.0859C9.13867 12.0156 9.3418 11.9219 9.50195 11.8047C9.66211 11.6836 9.78125 11.541 9.85938 11.377C9.9375 11.209 9.97656 11.0273 9.97656 10.832C9.97656 10.6094 9.94141 10.4043 9.87109 10.2168C9.80078 10.0254 9.68555 9.85938 9.52539 9.71875C9.36523 9.57812 9.15625 9.46875 8.89844 9.39062C8.64062 9.3125 8.32422 9.27344 7.94922 9.27344H6.83008V12.1855Z" fill="#2D2D2D"/>
<path d="M16.4491 9.98552L19.4569 2.1232C19.7351 1.39616 20.2767 0.800504 20.9742 0.454753C21.2803 0.303006 21.6093 0.202942 21.9481 0.158614L23.1602 0L23.8232 0L25.0608 0L25.956 0.0589506C26.272 0.0797609 26.5856 0.128118 26.8932 0.203472C27.3201 0.30804 27.7328 0.463934 28.1221 0.667746L28.6393 0.938421C29.0498 1.15329 29.4199 1.43765 29.7334 1.77888C30.2882 2.38293 30.6445 3.14252 30.7544 3.95531L31.2928 7.93985L31.9198 12.5791C31.973 12.9735 31.9774 13.3729 31.9327 13.7684L31.929 13.8006C31.8881 14.1628 31.8039 14.5188 31.6782 14.8609L31.6347 14.9792C31.5251 15.2775 31.3766 15.56 31.1931 15.8194C30.9954 16.0988 30.7589 16.3486 30.4909 16.5615L30.4267 16.6124C30.2091 16.7852 29.9748 16.9358 29.7273 17.0621L29.5795 17.1375C29.0453 17.4101 28.4724 17.5989 27.8808 17.6972L26.8729 17.8647L26.1329 17.9228C25.4779 17.9742 24.8201 17.9776 24.1647 17.933C23.496 17.8875 22.8316 17.7921 22.177 17.6477L20.7755 17.3384C20.1868 17.2085 19.6149 17.0115 19.071 16.7513L18.885 16.6623C18.6122 16.5318 18.3509 16.3787 18.1036 16.2046L17.9338 16.0851C17.4453 15.7412 17.0316 15.3017 16.718 14.7932C16.5346 14.496 16.3872 14.1781 16.2788 13.8462L16.2423 13.7345C16.0818 13.2429 16 12.729 16 12.2119C16 11.8611 16.0376 11.5113 16.1123 11.1686L16.1557 10.969C16.2286 10.6343 16.3267 10.3055 16.4491 9.98552Z" fill="#FFD330"/>
<path d="M24.6934 4.89062L28.4199 13H26.6387L25.6426 10.832H22.3438L21.3008 13H20.1875L24.0605 4.89062H24.6934ZM22.7129 10.0938H25.3145L24.1367 7.52734H23.9258L22.7129 10.0938Z" fill="#2D2D2D"/>
<path d="M32.4491 8.01448L35.4569 15.8768C35.7351 16.6038 36.2767 17.1995 36.9742 17.5452C37.2803 17.697 37.6093 17.7971 37.9481 17.8414L39.1602 18H39.8232H41.0608L41.956 17.941C42.272 17.9202 42.5856 17.8719 42.8932 17.7965C43.3201 17.692 43.7328 17.5361 44.1221 17.3323L44.6393 17.0616C45.0498 16.8467 45.4199 16.5624 45.7334 16.2211C46.2882 15.6171 46.6445 14.8575 46.7544 14.0447L47.2928 10.0602L47.9198 5.4209C47.973 5.02652 47.9774 4.62707 47.9327 4.23163L47.929 4.19939C47.8881 3.83719 47.8039 3.48121 47.6782 3.13907L47.6347 3.02077C47.5251 2.72252 47.3766 2.44003 47.1931 2.18065C46.9954 1.90124 46.7589 1.65137 46.4909 1.43854L46.4267 1.38758C46.2091 1.21484 45.9748 1.0642 45.7273 0.937908L45.5795 0.862473C45.0453 0.589867 44.4724 0.4011 43.8808 0.302803L42.8729 0.135338L42.1329 0.0772324C41.4779 0.0258141 40.8201 0.0223885 40.1647 0.0669861C39.496 0.112492 38.8316 0.207865 38.177 0.352312L36.7755 0.66161C36.1868 0.791536 35.6149 0.988533 35.071 1.24874L34.885 1.33774C34.6122 1.46824 34.3509 1.62132 34.1036 1.79536L33.9338 1.91487C33.4453 2.25877 33.0316 2.69828 32.718 3.20677C32.5346 3.50396 32.3872 3.82187 32.2788 4.1538L32.2423 4.26553C32.0818 4.7571 32 5.27096 32 5.78808C32 6.13887 32.0376 6.48866 32.1123 6.83142L32.1557 7.031C32.2286 7.36574 32.3267 7.69451 32.4491 8.01448Z" fill="#876E19"/>
<path d="M40.3086 13.1758C39.6836 13.1758 39.1016 13.0723 38.5625 12.8652C38.0234 12.6582 37.5547 12.3691 37.1562 11.998C36.7617 11.623 36.4512 11.1797 36.2246 10.668C35.998 10.1523 35.8848 9.58789 35.8848 8.97461C35.8848 8.37305 35.998 7.82227 36.2246 7.32227C36.4512 6.81836 36.7617 6.38672 37.1562 6.02734C37.5547 5.66797 38.0234 5.38867 38.5625 5.18945C39.1016 4.99023 39.6836 4.89062 40.3086 4.89062C40.9336 4.89062 41.5156 4.99219 42.0547 5.19531C42.5938 5.39453 43.0625 5.67383 43.4609 6.0332C43.8594 6.39258 44.1719 6.82227 44.3984 7.32227C44.625 7.81836 44.7383 8.36328 44.7383 8.95703C44.7383 9.58984 44.625 10.166 44.3984 10.6855C44.1719 11.2051 43.8594 11.6504 43.4609 12.0215C43.0625 12.3887 42.5938 12.6738 42.0547 12.877C41.5156 13.0762 40.9336 13.1758 40.3086 13.1758ZM40.3086 12.5078C40.7148 12.5078 41.0723 12.4199 41.3809 12.2441C41.6934 12.0645 41.9551 11.8184 42.166 11.5059C42.377 11.1934 42.5352 10.8223 42.6406 10.3926C42.75 9.95898 42.8047 9.48633 42.8047 8.97461C42.8047 8.4707 42.75 8.00977 42.6406 7.5918C42.5352 7.17383 42.377 6.81445 42.166 6.51367C41.9551 6.21289 41.6934 5.97852 41.3809 5.81055C41.0723 5.64258 40.7148 5.55859 40.3086 5.55859C39.8984 5.55859 39.5371 5.64258 39.2246 5.81055C38.916 5.97852 38.6562 6.21289 38.4453 6.51367C38.2383 6.81445 38.0801 7.17383 37.9707 7.5918C37.8652 8.00977 37.8125 8.4707 37.8125 8.97461C37.8125 9.48633 37.8652 9.95898 37.9707 10.3926C38.0801 10.8223 38.2383 11.1934 38.4453 11.5059C38.6562 11.8184 38.916 12.0645 39.2246 12.2441C39.5371 12.4199 39.8984 12.5078 40.3086 12.5078Z" fill="#2D2D2D"/>
<path d="M48.4491 9.98552L51.4569 2.1232C51.7351 1.39616 52.2767 0.800504 52.9742 0.454753C53.2803 0.303006 53.6093 0.202942 53.9481 0.158614L55.1602 0L55.8232 0L57.0608 0L57.956 0.0589506C58.272 0.0797609 58.5856 0.128118 58.8932 0.203472C59.3201 0.30804 59.7328 0.463934 60.1221 0.667746L60.6393 0.938421C61.0498 1.15329 61.4199 1.43765 61.7334 1.77888C62.2882 2.38293 62.6445 3.14252 62.7544 3.95531L63.2928 7.93985L63.9198 12.5791C63.973 12.9735 63.9774 13.3729 63.9327 13.7684L63.929 13.8006C63.8881 14.1628 63.8039 14.5188 63.6782 14.8609L63.6347 14.9792C63.5251 15.2775 63.3766 15.56 63.1931 15.8194C62.9954 16.0988 62.7589 16.3486 62.4909 16.5615L62.4267 16.6124C62.2091 16.7852 61.9748 16.9358 61.7273 17.0621L61.5795 17.1375C61.0453 17.4101 60.4724 17.5989 59.8808 17.6972L58.8729 17.8647L58.1329 17.9228C57.4779 17.9742 56.8201 17.9776 56.1647 17.933C55.496 17.8875 54.8316 17.7921 54.177 17.6477L52.7755 17.3384C52.1868 17.2085 51.6149 17.0115 51.071 16.7513L50.885 16.6623C50.6122 16.5318 50.3509 16.3787 50.1036 16.2046L49.9338 16.0851C49.4453 15.7412 49.0316 15.3017 48.718 14.7932C48.5346 14.496 48.3872 14.1781 48.2788 13.8462L48.2423 13.7345C48.0818 13.2429 48 12.729 48 12.2119C48 11.8611 48.0376 11.5113 48.1123 11.1686L48.1557 10.969C48.2286 10.6343 48.3267 10.3055 48.4491 9.98552Z" fill="#007616"/>
<path d="M53.1133 5.05469H56.4062C56.8477 5.05469 57.25 5.10352 57.6133 5.20117C57.9805 5.29883 58.2949 5.4375 58.5566 5.61719C58.8223 5.79297 59.0273 6.00586 59.1719 6.25586C59.3203 6.50586 59.3945 6.7832 59.3945 7.08789C59.3945 7.2832 59.375 7.46289 59.3359 7.62695C59.2969 7.78711 59.2324 7.9375 59.1426 8.07812C59.0566 8.21875 58.9395 8.35352 58.791 8.48242C58.6426 8.60742 58.4609 8.73242 58.2461 8.85742H58.2695C58.4922 8.92773 58.6953 9.02539 58.8789 9.15039C59.0664 9.27148 59.2266 9.41406 59.3594 9.57812C59.4961 9.74219 59.6016 9.92578 59.6758 10.1289C59.7539 10.332 59.793 10.5488 59.793 10.7793C59.793 11.0918 59.7227 11.3828 59.582 11.6523C59.4453 11.9219 59.25 12.1562 58.9961 12.3555C58.7461 12.5547 58.4434 12.7129 58.0879 12.8301C57.7363 12.9434 57.3438 13 56.9102 13H53.1133V5.05469ZM54.8301 8.5H56.2305C56.457 8.5 56.6582 8.46875 56.834 8.40625C57.0137 8.33984 57.1641 8.25 57.2852 8.13672C57.4062 8.01953 57.498 7.88086 57.5605 7.7207C57.623 7.56055 57.6543 7.38672 57.6543 7.19922C57.6543 6.99219 57.6152 6.80273 57.5371 6.63086C57.459 6.45898 57.3379 6.3125 57.1738 6.19141C57.0137 6.06641 56.8086 5.9707 56.5586 5.9043C56.3125 5.83398 56.0176 5.79883 55.6738 5.79883H54.8301V8.5ZM54.8301 12.1855H56.0254C56.3613 12.1855 56.6504 12.1523 56.8926 12.0859C57.1387 12.0156 57.3418 11.9219 57.502 11.8047C57.6621 11.6836 57.7812 11.541 57.8594 11.377C57.9375 11.209 57.9766 11.0273 57.9766 10.832C57.9766 10.6094 57.9414 10.4043 57.8711 10.2168C57.8008 10.0254 57.6855 9.85938 57.5254 9.71875C57.3652 9.57812 57.1562 9.46875 56.8984 9.39062C56.6406 9.3125 56.3242 9.27344 55.9492 9.27344H54.8301V12.1855Z" fill="#2D2D2D"/>
<path d="M64.4491 8.01448L67.4569 15.8768C67.7351 16.6038 68.2767 17.1995 68.9742 17.5452C69.2803 17.697 69.6093 17.7971 69.9481 17.8414L71.1602 18H71.8232H73.0608L73.956 17.941C74.272 17.9202 74.5856 17.8719 74.8932 17.7965C75.3201 17.692 75.7328 17.5361 76.1221 17.3323L76.6393 17.0616C77.0498 16.8467 77.4199 16.5624 77.7334 16.2211C78.2882 15.6171 78.6445 14.8575 78.7544 14.0447L79.2928 10.0602L79.9198 5.4209C79.973 5.02652 79.9774 4.62707 79.9327 4.23163L79.929 4.19939C79.8881 3.83719 79.8039 3.48121 79.6782 3.13907L79.6347 3.02077C79.5251 2.72252 79.3766 2.44003 79.1931 2.18065C78.9954 1.90124 78.7589 1.65137 78.4909 1.43854L78.4267 1.38758C78.2091 1.21484 77.9748 1.0642 77.7273 0.937908L77.5795 0.862473C77.0453 0.589867 76.4724 0.4011 75.8808 0.302803L74.8729 0.135338L74.1329 0.0772324C73.4779 0.0258141 72.8201 0.0223885 72.1647 0.0669861C71.496 0.112492 70.8316 0.207865 70.177 0.352312L68.7755 0.66161C68.1868 0.791536 67.6149 0.988533 67.071 1.24874L66.885 1.33774C66.6122 1.46824 66.3509 1.62132 66.1036 1.79536L65.9338 1.91487C65.4453 2.25877 65.0316 2.69828 64.718 3.20677C64.5346 3.50396 64.3872 3.82187 64.2788 4.1538L64.2423 4.26553C64.0818 4.7571 64 5.27096 64 5.78808C64 6.13887 64.0376 6.48866 64.1123 6.83142L64.1557 7.031C64.2286 7.36574 64.3267 7.69451 64.4491 8.01448Z" fill="#FFD330"/>
<path d="M72.6934 4.89062L76.4199 13H74.6387L73.6426 10.832H70.3438L69.3008 13H68.1875L72.0605 4.89062H72.6934ZM70.7129 10.0938H73.3145L72.1367 7.52734H71.9258L70.7129 10.0938Z" fill="#2D2D2D"/>
<path d="M80.4491 9.98552L83.4569 2.1232C83.7351 1.39616 84.2767 0.800504 84.9742 0.454753C85.2803 0.303006 85.6093 0.202942 85.9481 0.158614L87.1602 0L87.8232 0L89.0608 0L89.956 0.0589506C90.272 0.0797609 90.5856 0.128118 90.8932 0.203472C91.3201 0.30804 91.7328 0.463934 92.1221 0.667746L92.6393 0.938421C93.0498 1.15329 93.4199 1.43765 93.7334 1.77888C94.2882 2.38293 94.6445 3.14252 94.7544 3.95531L95.2928 7.93985L95.9198 12.5791C95.973 12.9735 95.9774 13.3729 95.9327 13.7684L95.929 13.8006C95.8881 14.1628 95.8039 14.5188 95.6782 14.8609L95.6347 14.9792C95.5251 15.2775 95.3766 15.56 95.1931 15.8194C94.9954 16.0988 94.7589 16.3486 94.4909 16.5615L94.4267 16.6124C94.2091 16.7852 93.9748 16.9358 93.7273 17.0621L93.5795 17.1375C93.0453 17.4101 92.4724 17.5989 91.8808 17.6972L90.8729 17.8647L90.1329 17.9228C89.4779 17.9742 88.8201 17.9776 88.1647 17.933C87.496 17.8875 86.8316 17.7921 86.177 17.6477L84.7755 17.3384C84.1868 17.2085 83.6149 17.0115 83.071 16.7513L82.885 16.6623C82.6122 16.5318 82.3509 16.3787 82.1036 16.2046L81.9338 16.0851C81.4453 15.7412 81.0316 15.3017 80.718 14.7932C80.5346 14.496 80.3872 14.1781 80.2788 13.8462L80.2423 13.7345C80.0818 13.2429 80 12.729 80 12.2119C80 11.8611 80.0376 11.5113 80.1123 11.1686L80.1557 10.969C80.2286 10.6343 80.3267 10.3055 80.4491 9.98552Z" fill="#007616"/>
<path d="M85.1133 5.05469H88.4062C88.8477 5.05469 89.25 5.10352 89.6133 5.20117C89.9805 5.29883 90.2949 5.4375 90.5566 5.61719C90.8223 5.79297 91.0273 6.00586 91.1719 6.25586C91.3203 6.50586 91.3945 6.7832 91.3945 7.08789C91.3945 7.2832 91.375 7.46289 91.3359 7.62695C91.2969 7.78711 91.2324 7.9375 91.1426 8.07812C91.0566 8.21875 90.9395 8.35352 90.791 8.48242C90.6426 8.60742 90.4609 8.73242 90.2461 8.85742H90.2695C90.4922 8.92773 90.6953 9.02539 90.8789 9.15039C91.0664 9.27148 91.2266 9.41406 91.3594 9.57812C91.4961 9.74219 91.6016 9.92578 91.6758 10.1289C91.7539 10.332 91.793 10.5488 91.793 10.7793C91.793 11.0918 91.7227 11.3828 91.582 11.6523C91.4453 11.9219 91.25 12.1562 90.9961 12.3555C90.7461 12.5547 90.4434 12.7129 90.0879 12.8301C89.7363 12.9434 89.3438 13 88.9102 13H85.1133V5.05469ZM86.8301 8.5H88.2305C88.457 8.5 88.6582 8.46875 88.834 8.40625C89.0137 8.33984 89.1641 8.25 89.2852 8.13672C89.4062 8.01953 89.498 7.88086 89.5605 7.7207C89.623 7.56055 89.6543 7.38672 89.6543 7.19922C89.6543 6.99219 89.6152 6.80273 89.5371 6.63086C89.459 6.45898 89.3379 6.3125 89.1738 6.19141C89.0137 6.06641 88.8086 5.9707 88.5586 5.9043C88.3125 5.83398 88.0176 5.79883 87.6738 5.79883H86.8301V8.5ZM86.8301 12.1855H88.0254C88.3613 12.1855 88.6504 12.1523 88.8926 12.0859C89.1387 12.0156 89.3418 11.9219 89.502 11.8047C89.6621 11.6836 89.7812 11.541 89.8594 11.377C89.9375 11.209 89.9766 11.0273 89.9766 10.832C89.9766 10.6094 89.9414 10.4043 89.8711 10.2168C89.8008 10.0254 89.6855 9.85938 89.5254 9.71875C89.3652 9.57812 89.1562 9.46875 88.8984 9.39062C88.6406 9.3125 88.3242 9.27344 87.9492 9.27344H86.8301V12.1855Z" fill="#2D2D2D"/>
</svg>
