<svg width="48" height="38" viewBox="0 0 48 38" fill="none" xmlns="http://www.w3.org/2000/svg">
<path d="M0.449072 8.01448L3.45693 15.8768C3.73507 16.6038 4.27674 17.1995 4.97416 17.5452C5.28025 17.697 5.60934 17.7971 5.9481 17.8414L7.16022 18H7.8232H9.06077L9.956 17.941C10.272 17.9202 10.5856 17.8719 10.8932 17.7965C11.3201 17.692 11.7328 17.5361 12.1221 17.3323L12.6393 17.0616C13.0498 16.8467 13.4199 16.5624 13.7334 16.2211C14.2882 15.6171 14.6445 14.8575 14.7544 14.0447L15.2928 10.0602L15.9198 5.4209C15.973 5.02652 15.9774 4.62707 15.9327 4.23163L15.929 4.19939C15.8881 3.83719 15.8039 3.48121 15.6782 3.13907L15.6347 3.02078C15.5251 2.72252 15.3766 2.44003 15.1931 2.18065C14.9954 1.90124 14.7589 1.65137 14.4909 1.43855L14.4267 1.38758C14.2091 1.21484 13.9748 1.0642 13.7273 0.937906L13.5795 0.862469C13.0453 0.589867 12.4724 0.4011 11.8808 0.302805L10.8729 0.135338L10.1329 0.0772324C9.47795 0.0258121 8.82015 0.0223885 8.16474 0.0669861C7.49599 0.11249 6.83158 0.207865 6.17704 0.352314L4.77552 0.66161C4.18678 0.791538 3.61488 0.988533 3.07102 1.24874L2.885 1.33774C2.61223 1.46824 2.35086 1.62132 2.1036 1.79536L1.93383 1.91487C1.44528 2.25877 1.03163 2.69828 0.717959 3.20677C0.534627 3.50396 0.387212 3.82186 0.278807 4.1538L0.24232 4.26553C0.0817836 4.7571 0 5.27096 0 5.78808C0 6.13887 0.0376368 6.48866 0.112264 6.83142L0.155715 7.031C0.228596 7.36574 0.326661 7.69451 0.449072 8.01448Z" fill="#007616"/>
<path d="M5.11328 5.05469H8.40625C8.84766 5.05469 9.25 5.10352 9.61328 5.20117C9.98047 5.29883 10.2949 5.4375 10.5566 5.61719C10.8223 5.79297 11.0273 6.00586 11.1719 6.25586C11.3203 6.50586 11.3945 6.7832 11.3945 7.08789C11.3945 7.2832 11.375 7.46289 11.3359 7.62695C11.2969 7.78711 11.2324 7.9375 11.1426 8.07812C11.0566 8.21875 10.9395 8.35352 10.791 8.48242C10.6426 8.60742 10.4609 8.73242 10.2461 8.85742H10.2695C10.4922 8.92773 10.6953 9.02539 10.8789 9.15039C11.0664 9.27148 11.2266 9.41406 11.3594 9.57812C11.4961 9.74219 11.6016 9.92578 11.6758 10.1289C11.7539 10.332 11.793 10.5488 11.793 10.7793C11.793 11.0918 11.7227 11.3828 11.582 11.6523C11.4453 11.9219 11.25 12.1562 10.9961 12.3555C10.7461 12.5547 10.4434 12.7129 10.0879 12.8301C9.73633 12.9434 9.34375 13 8.91016 13H5.11328V5.05469ZM6.83008 8.5H8.23047C8.45703 8.5 8.6582 8.46875 8.83398 8.40625C9.01367 8.33984 9.16406 8.25 9.28516 8.13672C9.40625 8.01953 9.49805 7.88086 9.56055 7.7207C9.62305 7.56055 9.6543 7.38672 9.6543 7.19922C9.6543 6.99219 9.61523 6.80273 9.53711 6.63086C9.45898 6.45898 9.33789 6.3125 9.17383 6.19141C9.01367 6.06641 8.80859 5.9707 8.55859 5.9043C8.3125 5.83398 8.01758 5.79883 7.67383 5.79883H6.83008V8.5ZM6.83008 12.1855H8.02539C8.36133 12.1855 8.65039 12.1523 8.89258 12.0859C9.13867 12.0156 9.3418 11.9219 9.50195 11.8047C9.66211 11.6836 9.78125 11.541 9.85938 11.377C9.9375 11.209 9.97656 11.0273 9.97656 10.832C9.97656 10.6094 9.94141 10.4043 9.87109 10.2168C9.80078 10.0254 9.68555 9.85938 9.52539 9.71875C9.36523 9.57812 9.15625 9.46875 8.89844 9.39062C8.64062 9.3125 8.32422 9.27344 7.94922 9.27344H6.83008V12.1855Z" fill="#2D2D2D"/>
<path d="M16.4491 9.98552L19.4569 2.1232C19.7351 1.39616 20.2767 0.800504 20.9742 0.454753C21.2803 0.303006 21.6093 0.202942 21.9481 0.158614L23.1602 0L23.8232 0L25.0608 0L25.956 0.0589506C26.272 0.0797609 26.5856 0.128118 26.8932 0.203472C27.3201 0.30804 27.7328 0.463934 28.1221 0.667746L28.6393 0.938421C29.0498 1.15329 29.4199 1.43765 29.7334 1.77888C30.2882 2.38293 30.6445 3.14252 30.7544 3.95531L31.2928 7.93985L31.9198 12.5791C31.973 12.9735 31.9774 13.3729 31.9327 13.7684L31.929 13.8006C31.8881 14.1628 31.8039 14.5188 31.6782 14.8609L31.6347 14.9792C31.5251 15.2775 31.3766 15.56 31.1931 15.8194C30.9954 16.0988 30.7589 16.3486 30.4909 16.5615L30.4267 16.6124C30.2091 16.7852 29.9748 16.9358 29.7273 17.0621L29.5795 17.1375C29.0453 17.4101 28.4724 17.5989 27.8808 17.6972L26.8729 17.8647L26.1329 17.9228C25.4779 17.9742 24.8201 17.9776 24.1647 17.933C23.496 17.8875 22.8316 17.7921 22.177 17.6477L20.7755 17.3384C20.1868 17.2085 19.6149 17.0115 19.071 16.7513L18.885 16.6623C18.6122 16.5318 18.3509 16.3787 18.1036 16.2046L17.9338 16.0851C17.4453 15.7412 17.0316 15.3017 16.718 14.7932C16.5346 14.496 16.3872 14.1781 16.2788 13.8462L16.2423 13.7345C16.0818 13.2429 16 12.729 16 12.2119C16 11.8611 16.0376 11.5113 16.1123 11.1686L16.1557 10.969C16.2286 10.6343 16.3267 10.3055 16.4491 9.98552Z" fill="#FFD330"/>
<path d="M24.6934 4.89062L28.4199 13H26.6387L25.6426 10.832H22.3438L21.3008 13H20.1875L24.0605 4.89062H24.6934ZM22.7129 10.0938H25.3145L24.1367 7.52734H23.9258L22.7129 10.0938Z" fill="#2D2D2D"/>
<path d="M32.4491 8.01448L35.4569 15.8768C35.7351 16.6038 36.2767 17.1995 36.9742 17.5452C37.2803 17.697 37.6093 17.7971 37.9481 17.8414L39.1602 18H39.8232H41.0608L41.956 17.941C42.272 17.9202 42.5856 17.8719 42.8932 17.7965C43.3201 17.692 43.7328 17.5361 44.1221 17.3323L44.6393 17.0616C45.0498 16.8467 45.4199 16.5624 45.7334 16.2211C46.2882 15.6171 46.6445 14.8575 46.7544 14.0447L47.2928 10.0602L47.9198 5.4209C47.973 5.02652 47.9774 4.62707 47.9327 4.23163L47.929 4.19939C47.8881 3.83719 47.8039 3.48121 47.6782 3.13907L47.6347 3.02077C47.5251 2.72252 47.3766 2.44003 47.1931 2.18065C46.9954 1.90124 46.7589 1.65137 46.4909 1.43854L46.4267 1.38758C46.2091 1.21484 45.9748 1.0642 45.7273 0.937908L45.5795 0.862473C45.0453 0.589867 44.4724 0.4011 43.8808 0.302803L42.8729 0.135338L42.1329 0.0772324C41.4779 0.0258141 40.8201 0.0223885 40.1647 0.0669861C39.496 0.112492 38.8316 0.207865 38.177 0.352312L36.7755 0.66161C36.1868 0.791536 35.6149 0.988533 35.071 1.24874L34.885 1.33774C34.6122 1.46824 34.3509 1.62132 34.1036 1.79536L33.9338 1.91487C33.4453 2.25877 33.0316 2.69828 32.718 3.20677C32.5346 3.50396 32.3872 3.82187 32.2788 4.1538L32.2423 4.26553C32.0818 4.7571 32 5.27096 32 5.78808C32 6.13887 32.0376 6.48866 32.1123 6.83142L32.1557 7.031C32.2286 7.36574 32.3267 7.69451 32.4491 8.01448Z" fill="#876E19"/>
<path d="M40.3086 13.1758C39.6836 13.1758 39.1016 13.0723 38.5625 12.8652C38.0234 12.6582 37.5547 12.3691 37.1562 11.998C36.7617 11.623 36.4512 11.1797 36.2246 10.668C35.998 10.1523 35.8848 9.58789 35.8848 8.97461C35.8848 8.37305 35.998 7.82227 36.2246 7.32227C36.4512 6.81836 36.7617 6.38672 37.1562 6.02734C37.5547 5.66797 38.0234 5.38867 38.5625 5.18945C39.1016 4.99023 39.6836 4.89062 40.3086 4.89062C40.9336 4.89062 41.5156 4.99219 42.0547 5.19531C42.5938 5.39453 43.0625 5.67383 43.4609 6.0332C43.8594 6.39258 44.1719 6.82227 44.3984 7.32227C44.625 7.81836 44.7383 8.36328 44.7383 8.95703C44.7383 9.58984 44.625 10.166 44.3984 10.6855C44.1719 11.2051 43.8594 11.6504 43.4609 12.0215C43.0625 12.3887 42.5938 12.6738 42.0547 12.877C41.5156 13.0762 40.9336 13.1758 40.3086 13.1758ZM40.3086 12.5078C40.7148 12.5078 41.0723 12.4199 41.3809 12.2441C41.6934 12.0645 41.9551 11.8184 42.166 11.5059C42.377 11.1934 42.5352 10.8223 42.6406 10.3926C42.75 9.95898 42.8047 9.48633 42.8047 8.97461C42.8047 8.4707 42.75 8.00977 42.6406 7.5918C42.5352 7.17383 42.377 6.81445 42.166 6.51367C41.9551 6.21289 41.6934 5.97852 41.3809 5.81055C41.0723 5.64258 40.7148 5.55859 40.3086 5.55859C39.8984 5.55859 39.5371 5.64258 39.2246 5.81055C38.916 5.97852 38.6562 6.21289 38.4453 6.51367C38.2383 6.81445 38.0801 7.17383 37.9707 7.5918C37.8652 8.00977 37.8125 8.4707 37.8125 8.97461C37.8125 9.48633 37.8652 9.95898 37.9707 10.3926C38.0801 10.8223 38.2383 11.1934 38.4453 11.5059C38.6562 11.8184 38.916 12.0645 39.2246 12.2441C39.5371 12.4199 39.8984 12.5078 40.3086 12.5078Z" fill="#2D2D2D"/>
<path d="M0.449072 29.9855L3.45693 22.1232C3.73507 21.3962 4.27674 20.8005 4.97416 20.4548C5.28025 20.303 5.60934 20.2029 5.9481 20.1586L7.16022 20H7.8232H9.06077L9.956 20.059C10.272 20.0798 10.5856 20.1281 10.8932 20.2035C11.3201 20.308 11.7328 20.4639 12.1221 20.6677L12.6393 20.9384C13.0498 21.1533 13.4199 21.4376 13.7334 21.7789C14.2882 22.3829 14.6445 23.1425 14.7544 23.9553L15.2928 27.9398L15.9198 32.5791C15.973 32.9735 15.9774 33.3729 15.9327 33.7684L15.929 33.8006C15.8881 34.1628 15.8039 34.5188 15.6782 34.8609L15.6347 34.9792C15.5251 35.2775 15.3766 35.56 15.1931 35.8194C14.9954 36.0988 14.7589 36.3486 14.4909 36.5615L14.4267 36.6124C14.2091 36.7852 13.9748 36.9358 13.7273 37.0621L13.5795 37.1375C13.0453 37.4101 12.4724 37.5989 11.8808 37.6972L10.8729 37.8647L10.1329 37.9228C9.47795 37.9742 8.82015 37.9776 8.16474 37.933C7.49599 37.8875 6.83158 37.7921 6.17704 37.6477L4.77552 37.3384C4.18678 37.2085 3.61488 37.0115 3.07102 36.7513L2.885 36.6623C2.61223 36.5318 2.35086 36.3787 2.1036 36.2046L1.93383 36.0851C1.44528 35.7412 1.03163 35.3017 0.717959 34.7932C0.534627 34.496 0.387212 34.1781 0.278807 33.8462L0.24232 33.7345C0.0817836 33.2429 0 32.729 0 32.2119C0 31.8611 0.0376368 31.5113 0.112264 31.1686L0.155715 30.969C0.228596 30.6343 0.326661 30.3055 0.449072 29.9855Z" fill="#007616"/>
<path d="M5.11328 25.0547H8.40625C8.84766 25.0547 9.25 25.1035 9.61328 25.2012C9.98047 25.2988 10.2949 25.4375 10.5566 25.6172C10.8223 25.793 11.0273 26.0059 11.1719 26.2559C11.3203 26.5059 11.3945 26.7832 11.3945 27.0879C11.3945 27.2832 11.375 27.4629 11.3359 27.627C11.2969 27.7871 11.2324 27.9375 11.1426 28.0781C11.0566 28.2188 10.9395 28.3535 10.791 28.4824C10.6426 28.6074 10.4609 28.7324 10.2461 28.8574H10.2695C10.4922 28.9277 10.6953 29.0254 10.8789 29.1504C11.0664 29.2715 11.2266 29.4141 11.3594 29.5781C11.4961 29.7422 11.6016 29.9258 11.6758 30.1289C11.7539 30.332 11.793 30.5488 11.793 30.7793C11.793 31.0918 11.7227 31.3828 11.582 31.6523C11.4453 31.9219 11.25 32.1562 10.9961 32.3555C10.7461 32.5547 10.4434 32.7129 10.0879 32.8301C9.73633 32.9434 9.34375 33 8.91016 33H5.11328V25.0547ZM6.83008 28.5H8.23047C8.45703 28.5 8.6582 28.4688 8.83398 28.4062C9.01367 28.3398 9.16406 28.25 9.28516 28.1367C9.40625 28.0195 9.49805 27.8809 9.56055 27.7207C9.62305 27.5605 9.6543 27.3867 9.6543 27.1992C9.6543 26.9922 9.61523 26.8027 9.53711 26.6309C9.45898 26.459 9.33789 26.3125 9.17383 26.1914C9.01367 26.0664 8.80859 25.9707 8.55859 25.9043C8.3125 25.834 8.01758 25.7988 7.67383 25.7988H6.83008V28.5ZM6.83008 32.1855H8.02539C8.36133 32.1855 8.65039 32.1523 8.89258 32.0859C9.13867 32.0156 9.3418 31.9219 9.50195 31.8047C9.66211 31.6836 9.78125 31.541 9.85938 31.377C9.9375 31.209 9.97656 31.0273 9.97656 30.832C9.97656 30.6094 9.94141 30.4043 9.87109 30.2168C9.80078 30.0254 9.68555 29.8594 9.52539 29.7188C9.36523 29.5781 9.15625 29.4688 8.89844 29.3906C8.64062 29.3125 8.32422 29.2734 7.94922 29.2734H6.83008V32.1855Z" fill="#2D2D2D"/>
<path d="M16.4491 28.0145L19.4569 35.8768C19.7351 36.6038 20.2767 37.1995 20.9742 37.5452C21.2803 37.697 21.6093 37.7971 21.9481 37.8414L23.1602 38H23.8232H25.0608L25.956 37.941C26.272 37.9202 26.5856 37.8719 26.8932 37.7965C27.3201 37.692 27.7328 37.5361 28.1221 37.3323L28.6393 37.0616C29.0498 36.8467 29.4199 36.5624 29.7334 36.2211C30.2882 35.6171 30.6445 34.8575 30.7544 34.0447L31.2928 30.0602L31.9198 25.4209C31.973 25.0265 31.9774 24.6271 31.9327 24.2316L31.929 24.1994C31.8881 23.8372 31.8039 23.4812 31.6782 23.1391L31.6347 23.0208C31.5251 22.7225 31.3766 22.44 31.1931 22.1807C30.9954 21.9012 30.7589 21.6514 30.4909 21.4385L30.4267 21.3876C30.2091 21.2148 29.9748 21.0642 29.7273 20.9379L29.5795 20.8625C29.0453 20.5899 28.4724 20.4011 27.8808 20.3028L26.8729 20.1353L26.1329 20.0772C25.4779 20.0258 24.8201 20.0224 24.1647 20.067C23.496 20.1125 22.8316 20.2079 22.177 20.3523L20.7755 20.6616C20.1868 20.7915 19.6149 20.9885 19.071 21.2487L18.885 21.3377C18.6122 21.4682 18.3509 21.6213 18.1036 21.7954L17.9338 21.9149C17.4453 22.2588 17.0316 22.6983 16.718 23.2068C16.5346 23.504 16.3872 23.8219 16.2788 24.1538L16.2423 24.2655C16.0818 24.7571 16 25.271 16 25.7881C16 26.1389 16.0376 26.4887 16.1123 26.8314L16.1557 27.031C16.2286 27.3657 16.3267 27.6945 16.4491 28.0145Z" fill="#FFD330"/>
<path d="M24.6934 24.8906L28.4199 33H26.6387L25.6426 30.832H22.3438L21.3008 33H20.1875L24.0605 24.8906H24.6934ZM22.7129 30.0938H25.3145L24.1367 27.5273H23.9258L22.7129 30.0938Z" fill="#2D2D2D"/>
<path d="M32.4491 29.9855L35.4569 22.1232C35.7351 21.3962 36.2767 20.8005 36.9742 20.4548C37.2803 20.303 37.6093 20.2029 37.9481 20.1586L39.1602 20H39.8232H41.0608L41.956 20.059C42.272 20.0798 42.5856 20.1281 42.8932 20.2035C43.3201 20.308 43.7328 20.4639 44.1221 20.6677L44.6393 20.9384C45.0498 21.1533 45.4199 21.4376 45.7334 21.7789C46.2882 22.3829 46.6445 23.1425 46.7544 23.9553L47.2928 27.9398L47.9198 32.5791C47.973 32.9735 47.9774 33.3729 47.9327 33.7684L47.929 33.8006C47.8881 34.1628 47.8039 34.5188 47.6782 34.8609L47.6347 34.9792C47.5251 35.2775 47.3766 35.56 47.1931 35.8194C46.9954 36.0988 46.7589 36.3486 46.4909 36.5615L46.4267 36.6124C46.2091 36.7852 45.9748 36.9358 45.7273 37.0621L45.5795 37.1375C45.0453 37.4101 44.4724 37.5989 43.8808 37.6972L42.8729 37.8647L42.1329 37.9228C41.4779 37.9742 40.8201 37.9776 40.1647 37.933C39.496 37.8875 38.8316 37.7921 38.177 37.6477L36.7755 37.3384C36.1868 37.2085 35.6149 37.0115 35.071 36.7513L34.885 36.6623C34.6122 36.5318 34.3509 36.3787 34.1036 36.2046L33.9338 36.0851C33.4453 35.7412 33.0316 35.3017 32.718 34.7932C32.5346 34.496 32.3872 34.1781 32.2788 33.8462L32.2423 33.7345C32.0818 33.2429 32 32.729 32 32.2119C32 31.8611 32.0376 31.5113 32.1123 31.1686L32.1557 30.969C32.2286 30.6343 32.3267 30.3055 32.4491 29.9855Z" fill="#007616"/>
<path d="M37.1133 25.0547H40.4062C40.8477 25.0547 41.25 25.1035 41.6133 25.2012C41.9805 25.2988 42.2949 25.4375 42.5566 25.6172C42.8223 25.793 43.0273 26.0059 43.1719 26.2559C43.3203 26.5059 43.3945 26.7832 43.3945 27.0879C43.3945 27.2832 43.375 27.4629 43.3359 27.627C43.2969 27.7871 43.2324 27.9375 43.1426 28.0781C43.0566 28.2188 42.9395 28.3535 42.791 28.4824C42.6426 28.6074 42.4609 28.7324 42.2461 28.8574H42.2695C42.4922 28.9277 42.6953 29.0254 42.8789 29.1504C43.0664 29.2715 43.2266 29.4141 43.3594 29.5781C43.4961 29.7422 43.6016 29.9258 43.6758 30.1289C43.7539 30.332 43.793 30.5488 43.793 30.7793C43.793 31.0918 43.7227 31.3828 43.582 31.6523C43.4453 31.9219 43.25 32.1562 42.9961 32.3555C42.7461 32.5547 42.4434 32.7129 42.0879 32.8301C41.7363 32.9434 41.3438 33 40.9102 33H37.1133V25.0547ZM38.8301 28.5H40.2305C40.457 28.5 40.6582 28.4688 40.834 28.4062C41.0137 28.3398 41.1641 28.25 41.2852 28.1367C41.4062 28.0195 41.498 27.8809 41.5605 27.7207C41.623 27.5605 41.6543 27.3867 41.6543 27.1992C41.6543 26.9922 41.6152 26.8027 41.5371 26.6309C41.459 26.459 41.3379 26.3125 41.1738 26.1914C41.0137 26.0664 40.8086 25.9707 40.5586 25.9043C40.3125 25.834 40.0176 25.7988 39.6738 25.7988H38.8301V28.5ZM38.8301 32.1855H40.0254C40.3613 32.1855 40.6504 32.1523 40.8926 32.0859C41.1387 32.0156 41.3418 31.9219 41.502 31.8047C41.6621 31.6836 41.7812 31.541 41.8594 31.377C41.9375 31.209 41.9766 31.0273 41.9766 30.832C41.9766 30.6094 41.9414 30.4043 41.8711 30.2168C41.8008 30.0254 41.6855 29.8594 41.5254 29.7188C41.3652 29.5781 41.1562 29.4688 40.8984 29.3906C40.6406 29.3125 40.3242 29.2734 39.9492 29.2734H38.8301V32.1855Z" fill="#2D2D2D"/>
</svg>
